<svg width="21" height="20" viewBox="0 0 21 20" fill="none" xmlns="http://www.w3.org/2000/svg">
<path d="M18.1172 14.6089C17.4969 13.9839 15.9945 13.0718 15.2656 12.7042C14.3164 12.2261 14.2383 12.187 13.4922 12.7413C12.9945 13.1113 12.6637 13.4417 12.0812 13.3175C11.4988 13.1933 10.2332 12.4929 9.12498 11.3882C8.01678 10.2835 7.27576 8.98118 7.15115 8.40072C7.02654 7.82025 7.36248 7.49329 7.72889 6.99447C8.24529 6.29134 8.20623 6.17415 7.76482 5.22493C7.42068 4.48665 6.48201 2.99837 5.85467 2.38118C5.18357 1.71829 5.18357 1.83548 4.75115 2.01517C4.39911 2.16329 4.06137 2.34334 3.74217 2.55306C3.11717 2.96829 2.77029 3.31322 2.52771 3.83157C2.28514 4.34993 2.17615 5.56517 3.42889 7.84095C4.68162 10.1167 5.56053 11.2804 7.37967 13.0945C9.19881 14.9085 10.5976 15.8839 12.6426 17.0308C15.1722 18.4476 16.1426 18.1714 16.6625 17.9292C17.1824 17.687 17.5289 17.3433 17.9449 16.7183C18.1552 16.3996 18.3356 16.0623 18.484 15.7105C18.664 15.2796 18.7812 15.2796 18.1172 14.6089Z" stroke="#E479BD" stroke-miterlimit="10"/>
</svg>
