<svg width="24" height="24" viewBox="0 0 24 24" fill="none" xmlns="http://www.w3.org/2000/svg">
<circle cx="7" cy="18.25" r="2" fill="#E479BD"/>
<circle cx="17" cy="18.25" r="2" fill="#E479BD"/>
<path d="M4.75 11.25H17.25C19.4591 11.25 21.25 13.0409 21.25 15.25V16.75C21.25 17.6948 20.5948 18.4866 19.714 18.6959C19.7377 18.5508 19.75 18.4018 19.75 18.25C19.75 16.7312 18.5188 15.5 17 15.5C15.4812 15.5 14.25 16.7312 14.25 18.25C14.25 18.4207 14.2656 18.5879 14.2953 18.75H9.70466C9.73444 18.5879 9.75 18.4207 9.75 18.25C9.75 16.7312 8.51878 15.5 7 15.5C5.48122 15.5 4.25 16.7312 4.25 18.25C4.25 18.4018 4.2623 18.5508 4.28597 18.6959C3.40516 18.4866 2.75 17.6948 2.75 16.75V13.25C2.75 12.1454 3.64543 11.25 4.75 11.25Z" fill="#E479BD"/>
<path d="M8.55477 3.75H9.49993V10.25H4.5166L5.65606 5.97701C6.00627 4.66375 7.19562 3.75 8.55477 3.75Z" fill="#E479BD"/>
<path d="M18.2166 10.25L15.8793 5.86765C15.1842 4.56419 13.8272 3.75 12.3499 3.75H10.4999V10.25H18.2166Z" fill="#E479BD"/>
</svg>
