<svg width="24" height="24" viewBox="0 0 24 24" fill="none" xmlns="http://www.w3.org/2000/svg">
<path fill-rule="evenodd" clip-rule="evenodd" d="M21.25 12C21.25 17.1086 17.1086 21.25 12 21.25C6.89137 21.25 2.75 17.1086 2.75 12C2.75 6.89137 6.89137 2.75 12 2.75C17.1086 2.75 21.25 6.89137 21.25 12ZM8 14.25C8 15.6307 9.79086 16.75 12 16.75C14.2091 16.75 16 15.6307 16 14.25C16 13.5 15.6102 13.25 12 13.25C8.38983 13.25 8 13.5 8 14.25ZM10.6044 8.74949L9.41269 10.8944L9.41354 10.9L7.31948 9.6345C7.05896 9.47559 6.86934 9.22119 6.79037 8.92463C6.7114 8.62806 6.7492 8.31235 6.89585 8.04365C7.24929 7.39567 8.00435 7.37369 8.56863 7.71508C8.88908 7.13661 9.55222 6.77502 10.1807 7.15864C10.4411 7.31766 10.6307 7.57206 10.7096 7.86858C10.7886 8.1651 10.7509 8.48076 10.6044 8.74949ZM13.3956 8.74949L14.5873 10.8944L14.5865 10.9L16.6805 9.6345C16.941 9.47559 17.1307 9.22119 17.2096 8.92463C17.2886 8.62806 17.2508 8.31235 17.1042 8.04365C16.7507 7.39567 15.9956 7.37369 15.4314 7.71508C15.1109 7.13661 14.4478 6.77502 13.8193 7.15864C13.5589 7.31766 13.3693 7.57206 13.2904 7.86858C13.2114 8.1651 13.2491 8.48076 13.3956 8.74949Z" fill="#E479BD"/>
</svg>
