<svg width="21" height="20" viewBox="0 0 21 20" fill="none" xmlns="http://www.w3.org/2000/svg">
<path d="M10.5 1.875C7.39453 1.875 4.875 4.27305 4.875 7.22656C4.875 10.625 8.625 16.0105 10.002 17.8707C10.0591 17.9492 10.134 18.0131 10.2206 18.0572C10.3071 18.1012 10.4029 18.1242 10.5 18.1242C10.5971 18.1242 10.6929 18.1012 10.7794 18.0572C10.866 18.0131 10.9409 17.9492 10.998 17.8707C12.375 16.0113 16.125 10.6277 16.125 7.22656C16.125 4.27305 13.6055 1.875 10.5 1.875Z" stroke="#E479BD" stroke-linecap="round" stroke-linejoin="round"/>
<path d="M10.5 9.375C11.5355 9.375 12.375 8.53553 12.375 7.5C12.375 6.46447 11.5355 5.625 10.5 5.625C9.46447 5.625 8.625 6.46447 8.625 7.5C8.625 8.53553 9.46447 9.375 10.5 9.375Z" stroke="#E479BD" stroke-linecap="round" stroke-linejoin="round"/>
</svg>
