<svg width="49" height="34" viewBox="0 0 49 34" fill="none" xmlns="http://www.w3.org/2000/svg">
<path d="M12.5405 24.9304C18.9094 24.9304 24.0724 19.7675 24.0724 13.3986C24.0724 7.02972 18.9094 1.8667 12.5405 1.8667C6.17165 1.8667 1.00867 7.02972 1.00867 13.3986C1.00867 19.7675 6.17165 24.9304 12.5405 24.9304Z" fill="#E479BD"/>
<path d="M26.8682 24.9304C33.2371 24.9304 38.4001 19.7675 38.4001 13.3986C38.4001 7.02972 33.2371 1.8667 26.8682 1.8667C20.4993 1.8667 15.3363 7.02972 15.3363 13.3986C15.3363 19.7675 20.4993 24.9304 26.8682 24.9304Z" fill="#E479BD"/>
<path d="M15.3363 13.3912C15.3363 17.0517 17.0399 20.3103 19.7044 22.4245C22.369 20.3103 24.0726 17.0517 24.0726 13.3912C24.0726 9.73071 22.369 6.47209 19.7044 4.35791C17.0399 6.47209 15.3363 9.73071 15.3363 13.3912Z" fill="#E479BD"/>
<path d="M9.11597 28.3823C8.55685 28.3823 7.87542 28.6095 7.87542 28.9066C7.87542 29.1075 7.98024 29.3433 8.18993 29.3433C8.35592 29.3433 8.50443 29.0987 9.1072 29.0987C9.71001 29.0987 9.9197 29.5705 9.9197 29.9898V30.1383H9.5615C8.41705 30.1383 7.63953 30.3829 7.63953 31.3177C7.63953 32.0603 8.13752 32.401 8.73156 32.401C9.29068 32.401 9.68381 32.0953 9.97211 31.7633V32.0516C9.97211 32.2088 10.1468 32.3399 10.3652 32.3399C10.6011 32.3399 10.7846 32.2088 10.7846 32.0516V29.9811C10.7758 29.1599 10.3215 28.3823 9.11597 28.3823ZM9.91098 30.9158C9.91098 31.309 9.43919 31.737 9.02858 31.737C8.72284 31.737 8.49567 31.5711 8.49567 31.2041C8.49567 30.68 9.081 30.6101 9.70129 30.6101H9.91098V30.9158Z" fill="#E479BD"/>
<path d="M12.2869 29.5257C12.2869 29.316 12.4704 29.0452 12.9509 29.0452C13.4139 29.0452 13.6673 29.2811 13.842 29.2811C14.0516 29.2811 14.1739 28.9841 14.1739 28.8618C14.1739 28.5997 13.5537 28.3726 12.9422 28.3726C11.9025 28.3726 11.5356 28.9928 11.5356 29.5607C11.5356 30.9236 13.5187 30.4168 13.5187 31.2817C13.5187 31.5001 13.3615 31.7273 12.8198 31.7273C12.1122 31.7273 11.9375 31.3516 11.7278 31.3516C11.5531 31.3516 11.4308 31.5875 11.4308 31.736C11.4308 32.0505 12.0336 32.3912 12.8461 32.3912C13.7721 32.3912 14.2962 31.9457 14.2962 31.2468C14.2875 29.7703 12.2869 30.2508 12.2869 29.5257Z" fill="#E479BD"/>
<path d="M16.7076 31.5882H16.4193C15.9912 31.5882 15.8427 31.4397 15.8427 31.0466V29.0722H16.8473C16.9959 29.0722 17.0832 28.9149 17.0832 28.7489C17.0832 28.5829 16.9959 28.4257 16.8473 28.4257H15.8427V26.9144C15.8427 26.7484 15.6155 26.6348 15.4059 26.6348C15.1962 26.6348 14.9778 26.7484 14.9778 26.9144V31.0378C14.9778 31.9377 15.4757 32.3221 16.4193 32.3221H16.7076C16.9522 32.3221 17.0745 32.1386 17.0745 31.9552C17.0745 31.7717 16.9522 31.5882 16.7076 31.5882Z" fill="#E479BD"/>
<path d="M20.4815 31.3876C20.2631 31.3876 20.0621 31.7022 19.4768 31.7022C18.839 31.7022 18.4022 31.3527 18.4022 30.8023V30.6101H20.1408C20.5077 30.6101 20.8921 30.5839 20.8921 29.9025C20.8921 29.0026 20.132 28.3823 19.2496 28.3823C18.3061 28.3823 17.5374 29.1162 17.5374 29.9811V30.7673C17.5374 31.7458 18.3236 32.401 19.4506 32.401C20.2805 32.401 20.8134 32.0254 20.8134 31.772C20.8222 31.6235 20.6911 31.3876 20.4815 31.3876ZM18.4109 29.8151C18.4109 29.3608 18.7953 29.0375 19.2496 29.0375C19.7214 29.0375 20.0796 29.3957 20.0796 29.8238C20.0796 30.0248 20.0097 30.0684 19.7738 30.0684H18.4109V29.8151Z" fill="#E479BD"/>
<path d="M23.7146 28.3823H23.4525C22.9632 28.3823 22.5788 28.7318 22.4041 29.0725V28.7144C22.4041 28.5484 22.2207 28.4347 22.011 28.4347C21.7664 28.4347 21.5917 28.5484 21.5917 28.7144V32.0516C21.5917 32.1913 21.7664 32.3399 22.011 32.3399C22.2556 32.3399 22.4565 32.1913 22.4565 32.0516V30.3655C22.4565 29.6142 22.9545 29.1511 23.4525 29.1511H23.7146C23.8893 29.1511 24.0466 28.9764 24.0466 28.7667C24.0466 28.557 23.8893 28.3823 23.7146 28.3823Z" fill="#E479BD"/>
<path d="M27.0689 31.3604C26.8767 31.3604 26.7456 31.6312 26.204 31.6312C25.5662 31.6312 25.2867 31.2992 25.2867 30.7576V30.015C25.2867 29.4733 25.575 29.1413 26.1952 29.1413C26.7194 29.1413 26.8679 29.3947 27.0427 29.3947C27.2524 29.3947 27.3921 29.1413 27.3921 28.9753C27.3921 28.6871 26.8854 28.3726 26.1341 28.3726C24.9547 28.3726 24.4305 29.0889 24.4305 30.0062V30.7488C24.4305 31.6836 24.9547 32.3825 26.1428 32.3825C26.9029 32.3825 27.4446 32.0418 27.4446 31.7535C27.4358 31.5962 27.296 31.3604 27.0689 31.3604Z" fill="#E479BD"/>
<path d="M5.56844 28.3823C5.08794 28.3823 4.6162 28.6444 4.32789 29.2035C4.13569 28.7143 3.74257 28.3823 3.24458 28.3823C2.69422 28.3823 2.32726 28.6881 2.15254 29.0113V28.7144C2.15254 28.5484 1.96911 28.4347 1.76814 28.4347C1.51481 28.4347 1.34009 28.5484 1.34009 28.7144V29.5792V30.0859V32.0603C1.34009 32.2001 1.5148 32.3486 1.75942 32.3486C2.00403 32.3486 2.20495 32.2001 2.20495 32.0603V30.6887V29.9986C2.20495 29.4394 2.58064 29.1424 2.97376 29.1424C3.37565 29.1424 3.74257 29.4831 3.74257 29.9898V32.0516C3.74257 32.2525 3.9697 32.3311 4.17062 32.3311C4.38903 32.3311 4.60743 32.2525 4.60743 32.0516V29.9898C4.60743 29.4569 4.99184 29.1424 5.38496 29.1424C5.76064 29.1424 6.15377 29.4394 6.15377 30.0073V32.0516C6.15377 32.1913 6.36346 32.3399 6.58182 32.3399C6.81771 32.3399 7.01863 32.1913 7.01863 32.0516V30.0073C6.99243 28.9676 6.30228 28.3823 5.56844 28.3823Z" fill="#E479BD"/>
<path d="M29.3053 28.3823C28.7462 28.3823 28.0648 28.6095 28.0648 28.9066C28.0648 29.1075 28.1696 29.3433 28.3793 29.3433C28.5453 29.3433 28.6938 29.0987 29.2966 29.0987C29.8993 29.0987 30.109 29.5705 30.109 29.9898V30.1383H29.7508C28.6064 30.1383 27.8289 30.3829 27.8289 31.3177C27.8289 32.0603 28.3268 32.401 28.9209 32.401C29.48 32.401 29.8731 32.0953 30.1614 31.7633V32.0516C30.1614 32.2088 30.3362 32.3399 30.5546 32.3399C30.7905 32.3399 30.9739 32.2088 30.9739 32.0516V29.9811C30.9739 29.1599 30.5196 28.3823 29.3053 28.3823ZM30.109 30.9158C30.109 31.309 29.6373 31.737 29.2267 31.737C28.9209 31.737 28.6938 31.5711 28.6938 31.2041C28.6938 30.68 29.2791 30.6101 29.8993 30.6101H30.109V30.9158Z" fill="#E479BD"/>
<path d="M33.9703 28.3823H33.7082C33.219 28.3823 32.8346 28.7318 32.6599 29.0725V28.7144C32.6599 28.5484 32.4764 28.4347 32.2667 28.4347C32.0221 28.4347 31.8474 28.5484 31.8474 28.7144V32.0516C31.8474 32.1913 32.0221 32.3399 32.2667 32.3399C32.5114 32.3399 32.7123 32.1913 32.7123 32.0516V30.3655C32.7123 29.6142 33.2103 29.1511 33.7082 29.1511H33.9703C34.145 29.1511 34.3023 28.9764 34.3023 28.7667C34.3023 28.557 34.145 28.3823 33.9703 28.3823Z" fill="#E479BD"/>
<path d="M37.6483 26.1108C37.4039 26.1108 37.2119 26.2244 37.2119 26.3904V29.0113C37.0284 28.688 36.6611 28.3823 36.1461 28.3823C35.3423 28.3823 34.6694 29.1161 34.6694 30.0072V30.7672C34.6694 31.6234 35.3423 32.4009 36.1198 32.4009C36.1546 32.4009 36.1985 32.4009 36.2333 32.3922L36.2418 32.3835C36.6873 32.3136 37.0108 32.0515 37.2643 31.7632V32.0515C37.2643 32.2088 37.4387 32.3398 37.6574 32.3398C37.8932 32.3398 38.0767 32.2088 38.0767 32.0515V30.0858V29.9897V26.3904C38.0767 26.2244 37.8932 26.1108 37.6483 26.1108ZM35.5343 30.7585V29.9985C35.5343 29.5704 35.9102 29.1423 36.3729 29.1423C36.7836 29.1423 37.2119 29.4656 37.2119 29.9985V30.6711V30.9158C37.2119 30.942 37.2119 30.9769 37.2028 31.0031C37.1504 31.2215 36.8012 31.6322 36.3643 31.6322C35.9102 31.6322 35.5343 31.2041 35.5343 30.7585Z" fill="#E479BD"/>
</svg>
