<svg width="80" height="80" viewBox="0 0 80 80" fill="none" xmlns="http://www.w3.org/2000/svg">
<path d="M70 40C70 23.4375 56.5625 10 40 10C23.4375 10 10 23.4375 10 40C10 56.5625 23.4375 70 40 70C56.5625 70 70 56.5625 70 40Z" fill="white" fill-opacity="0.15"/>
<path d="M31.25 50.8012V29.1981V50.8012ZM31.25 50.8012C31.2483 51.1 31.3261 51.3939 31.4754 51.6527C31.6247 51.9115 31.8402 52.126 32.0998 52.274C32.3593 52.4221 32.6536 52.4984 32.9523 52.4952C33.2511 52.4921 33.5437 52.4094 33.8 52.2559L31.25 50.8012ZM31.75 29.1981H31.75L31.75 29.1952C31.7488 28.9851 31.8035 28.7784 31.9085 28.5964C32.0135 28.4144 32.165 28.2636 32.3475 28.1595C32.53 28.0554 32.7369 28.0017 32.947 28.004C33.1568 28.0062 33.3623 28.0642 33.5424 28.1719C33.5426 28.172 33.5428 28.1721 33.5431 28.1723L51.4227 38.9735C51.4229 38.9736 51.4232 38.9738 51.4234 38.9739C51.5991 39.0811 51.7443 39.2317 51.8451 39.4111C51.9461 39.5909 51.9991 39.7935 51.9991 39.9996C51.9991 40.2057 51.9461 40.4084 51.8451 40.5881C51.7443 40.7676 51.5991 40.9181 51.4234 41.0253C51.4232 41.0255 51.4229 41.0256 51.4227 41.0257L33.5431 51.827C33.5428 51.8271 33.5425 51.8273 33.5423 51.8274C33.3622 51.9351 33.1568 51.993 32.947 51.9953C32.7369 51.9975 32.53 51.9438 32.3475 51.8397C32.165 51.7356 32.0135 51.5848 31.9085 51.4028C31.8035 51.2208 31.7488 51.0142 31.75 50.8041V50.8012V29.1981Z" stroke="white"/>
</svg>
