<svg width="60" height="34" viewBox="0 0 60 34" fill="none" xmlns="http://www.w3.org/2000/svg">
<path d="M26.1739 10.1675L23.9517 23.9961H27.5036L29.7245 10.1675H26.1739ZM36.8878 15.8005C35.6465 15.1875 34.8856 14.7738 34.8856 14.1469C34.9008 13.5769 35.5291 12.9929 36.9321 12.9929C38.0861 12.9639 38.9343 13.2351 39.5777 13.5049L39.9001 13.6488L40.383 10.7555C39.6814 10.4843 38.569 10.1855 37.1949 10.1855C33.6873 10.1855 31.2175 12.0092 31.2021 14.6175C31.1732 16.5423 32.9704 17.6104 34.3155 18.2511C35.6895 18.9083 36.1572 19.3345 36.1572 19.9185C36.142 20.815 35.0462 21.2287 34.0237 21.2287C32.6068 21.2287 31.8457 21.0157 30.6904 20.5161L30.2227 20.303L29.726 23.3098C30.5604 23.6807 32.0948 24.0072 33.6875 24.0238C37.4152 24.0238 39.8407 22.2278 39.8712 19.448C39.8834 17.9231 38.9357 16.7552 36.8878 15.8005ZM49.4891 10.2103H46.7411C45.8941 10.2103 45.2506 10.4538 44.884 11.3228L39.6079 23.9961H43.3356L44.3622 21.2523H48.5326L49.0653 24.0072H52.3531L49.4891 10.2103ZM45.396 18.4833C45.4679 18.4902 46.827 14.0042 46.827 14.0042L47.9091 18.4833C47.9091 18.4833 46.0977 18.4833 45.396 18.4833ZM20.9837 10.1675L17.5037 19.5627L17.1247 17.7099C16.4812 15.572 14.4639 13.2489 12.2125 12.095L15.3992 23.9823H19.1573L24.7419 10.169H20.9837V10.1675Z" fill="#E479BD"/>
<path d="M15.9537 11.9511C15.6825 10.8967 14.8176 10.1856 13.643 10.1704H8.1317L8.07495 10.4263C12.3741 11.4862 15.9827 14.7474 17.1533 17.8151L15.9537 11.9511Z" fill="#E479BD"/>
</svg>
