<svg width="585" height="406" viewBox="0 0 585 406" fill="none" xmlns="http://www.w3.org/2000/svg">
<g opacity="0.2">
<path d="M83.914 3.05699C85.3305 3.05805 85.3305 3.05805 86.7756 3.05914C87.2996 3.05848 87.8235 3.05783 88.3634 3.05715C90.132 3.05588 91.9006 3.06012 93.6693 3.0643C94.932 3.06452 96.1947 3.0644 97.4574 3.06396C100.896 3.06374 104.335 3.06827 107.774 3.07361C111.363 3.07839 114.953 3.07886 118.543 3.07977C125.345 3.08216 132.148 3.08846 138.951 3.09615C146.693 3.10472 154.435 3.10895 162.178 3.1128C178.109 3.12083 194.04 3.13434 209.971 3.15142C210.224 4.67084 210.478 6.19026 210.739 7.75572C208.177 9.69871 205.936 10.2977 202.825 10.7773C197.269 11.682 192.561 13.7687 188.484 17.7317C185.658 21.7357 184.435 25.0937 184.648 30.0098C186.335 38.7285 189.236 47.0863 192.165 55.4484C196.788 68.6623 201.175 81.9443 205.415 95.2854C205.667 96.0785 205.919 96.8715 206.179 97.6886C208.256 104.221 208.256 104.221 209.22 107.256C211.988 115.957 214.813 124.639 217.645 133.319C217.881 134.043 218.117 134.767 218.361 135.514C219.656 139.483 220.952 143.451 222.249 147.42C222.63 146.304 222.63 146.304 223.019 145.166C260.732 35.0458 260.732 35.0458 308.241 11.0107C314.956 7.76752 321.604 5.41019 328.916 3.9188C329.458 3.80405 330 3.68931 330.558 3.57108C332.07 3.32132 333.523 3.21514 335.055 3.15142C335.934 3.11185 336.813 3.07228 337.72 3.03152C354.929 2.51473 369.565 7.46601 382.345 19.3624C391.098 28.5224 395.413 39.4759 398.747 51.4966C399.76 48.3968 400.765 45.2947 401.769 42.1921C402.055 41.3156 402.342 40.4392 402.637 39.5362C403.049 38.2601 403.049 38.2601 403.469 36.9583C403.722 36.1786 403.975 35.399 404.236 34.5958C405.334 30.7418 405.747 27.1693 405.675 23.1693C405.665 22.3325 405.656 21.4956 405.646 20.6334C405.619 18.8847 405.589 17.1361 405.556 15.3876C405.548 14.5527 405.54 13.7178 405.531 12.8576C405.512 11.7201 405.512 11.7201 405.492 10.5596C405.666 8.37009 405.92 7.24005 407.189 5.45357C409.898 3.54074 411.759 2.86232 415.063 2.85353C415.85 2.84628 416.636 2.83902 417.446 2.83154C418.287 2.8362 419.128 2.84086 419.994 2.84566C420.866 2.84346 421.737 2.84126 422.634 2.83899C424.474 2.83743 426.314 2.84166 428.153 2.85128C430.967 2.86361 433.781 2.8514 436.595 2.83667C438.384 2.83819 440.172 2.84114 441.961 2.84566C442.802 2.841 443.643 2.83634 444.509 2.83154C445.296 2.8388 446.082 2.84606 446.892 2.85353C447.581 2.85536 448.269 2.8572 448.979 2.85908C452.072 3.32266 454.109 4.84007 456.36 6.94075C458.622 10.5411 459.58 14.4224 460.732 18.4931C461.151 19.9306 461.571 21.368 461.991 22.8054C462.441 24.3529 462.887 25.9016 463.332 27.4507C464.77 32.4502 466.238 37.4408 467.705 42.4318C468.048 43.5995 468.391 44.7673 468.733 45.9351C472.632 59.2271 476.698 72.4656 480.81 85.6931C480.986 86.2608 481.162 86.8284 481.344 87.4133C494.184 128.741 507.365 169.961 520.761 211.112C520.924 211.612 521.087 212.113 521.255 212.628C526.376 228.359 531.551 244.073 536.748 259.78C538.212 264.208 539.676 268.636 541.138 273.065C545.307 285.692 549.483 298.318 553.672 310.939C555.632 316.848 557.59 322.757 559.541 328.668C561.223 333.763 562.91 338.857 564.605 343.948C565.483 346.587 566.359 349.226 567.227 351.869C574.228 376.49 574.228 376.49 591.313 394.133C597.121 396.75 602.847 397.64 609.154 398.09C610.545 398.354 610.545 398.354 612.08 399.889C612.272 401.807 612.272 401.807 612.08 403.726C609.926 405.88 608.584 405.453 605.564 405.455C604.788 405.459 604.788 405.459 603.997 405.462C602.255 405.469 600.514 405.464 598.772 405.459C597.527 405.461 596.282 405.464 595.037 405.467C591.649 405.474 588.26 405.471 584.872 405.466C581.332 405.463 577.793 405.466 574.253 405.469C568.307 405.471 562.362 405.468 556.417 405.46C549.535 405.452 542.654 405.455 535.773 405.463C529.873 405.47 523.973 405.471 518.073 405.467C514.546 405.465 511.019 405.464 507.492 405.47C504.176 405.474 500.86 405.471 497.545 405.462C496.325 405.46 495.106 405.461 493.886 405.464C492.227 405.468 490.568 405.463 488.908 405.455C487.978 405.455 487.048 405.454 486.089 405.453C483.927 405.26 483.927 405.26 482.392 403.726C482.2 401.807 482.2 401.807 482.392 399.889C484.538 397.743 486.421 397.801 489.395 397.299C496.404 395.986 501.225 394.298 505.764 388.606C509.429 383.151 510.298 377.802 510.402 371.352C510.416 370.792 510.43 370.233 510.445 369.657C510.319 358.305 505.544 346.995 501.929 336.386C495.88 318.616 490.161 300.752 484.543 282.842C484.261 281.945 483.98 281.049 483.69 280.125C483.167 278.457 482.645 276.787 482.124 275.118C480.725 270.648 479.283 266.198 477.788 261.76C476.145 264.224 475.365 266.409 474.413 269.212C474.046 270.278 473.68 271.344 473.313 272.41C473.12 272.971 472.928 273.533 472.73 274.112C457.291 319.007 435.015 375.449 389.634 397.816C374.585 404.864 356.646 407.504 340.579 402.395C329.122 397.862 321.611 390.786 316.194 379.778C310.367 365.545 310.12 350.421 310.87 335.285C310.908 334.481 310.945 333.677 310.984 332.849C311.075 330.895 311.169 328.941 311.266 326.987C311.121 327.407 310.976 327.827 310.827 328.26C296.888 368.704 296.888 368.704 290.667 385.249C290.034 386.931 289.411 388.616 288.792 390.303C288.463 391.188 288.134 392.073 287.795 392.985C287.501 393.781 287.208 394.577 286.906 395.397C285.451 398.702 283.504 401.584 280.57 403.726C275.138 405.58 269.889 405.519 264.227 405.503C262.491 405.5 260.755 405.518 259.019 405.538C257.905 405.539 256.79 405.54 255.675 405.539C254.171 405.543 254.171 405.543 252.637 405.546C248.942 405.164 246.607 403.902 243.612 401.787C241.367 398.766 240.601 395.366 239.587 391.774C239.344 390.944 239.101 390.114 238.85 389.259C238.32 387.447 237.795 385.633 237.273 383.819C236.432 380.894 235.579 377.973 234.721 375.054C234.574 374.555 234.428 374.056 234.277 373.543C233.976 372.52 233.676 371.498 233.375 370.476C232.913 368.904 232.452 367.331 231.991 365.759C228.604 354.211 225.077 342.707 221.53 331.208C221.206 330.156 220.881 329.104 220.557 328.052C213.813 306.176 206.937 284.341 199.995 262.527C199.731 261.695 199.466 260.864 199.194 260.007C192.231 238.114 185.165 216.256 178.011 194.424C176.373 189.421 174.742 184.415 173.115 179.408C166.414 158.787 159.645 138.188 152.845 117.598C152.034 115.141 151.222 112.683 150.412 110.225C150.144 109.415 149.877 108.605 149.602 107.77C149.063 106.139 148.525 104.507 147.987 102.875C146.66 98.8527 145.331 94.8313 143.998 90.811C143.476 89.2358 142.954 87.6606 142.432 86.0854C142.177 85.3139 141.921 84.5424 141.658 83.7475C140.142 79.1666 138.641 74.5812 137.154 69.9909C136.211 67.0839 135.261 64.1793 134.31 61.275C133.875 59.9409 133.443 58.6057 133.016 57.2693C129.093 45.0198 124.719 31.7283 115.583 22.336C115.122 21.8454 114.661 21.3547 114.186 20.8492C106.326 13.2194 96.0943 10.8164 85.5441 10.3217C83.3529 10.0579 83.3529 10.0579 81.0507 8.5231C80.8589 6.17299 80.8589 6.17299 81.0507 3.9188C81.8181 3.15142 81.8181 3.15142 83.914 3.05699ZM280.043 56.4366C278.934 57.8551 277.831 59.2781 276.734 60.7052C276.147 61.4243 275.56 62.1435 274.956 62.8844C255.03 87.7358 242.481 118.345 232.251 148.212C231.557 150.205 230.829 152.18 230.076 154.152C229.883 154.674 229.69 155.195 229.491 155.732C229.017 157.013 228.53 158.288 228.041 159.563C227.156 164.7 229.459 170.178 230.976 175.086C231.153 175.665 231.33 176.244 231.512 176.841C232.096 178.752 232.684 180.662 233.271 182.572C233.69 183.938 234.108 185.303 234.526 186.669C235.648 190.332 236.775 193.994 237.902 197.656C238.607 199.945 239.31 202.235 240.014 204.525C246.678 226.215 253.431 247.876 260.366 269.482C260.846 270.977 261.326 272.472 261.805 273.967C262.275 275.431 262.745 276.894 263.214 278.358C265.281 284.815 267.298 291.286 269.286 297.768C270.04 300.223 270.799 302.676 271.556 305.13C272.41 307.894 273.259 310.659 274.095 313.429C274.844 315.91 275.608 318.387 276.374 320.863C276.588 321.589 276.802 322.314 277.023 323.062C278.307 327.154 279.506 329.649 282.873 332.359C285.394 333.619 287.831 333.599 290.546 333.126C296.946 329.288 298.632 322.654 301.098 316.004C301.589 314.716 302.082 313.428 302.576 312.141C303.641 309.361 304.698 306.578 305.749 303.792C307.469 299.243 309.224 294.709 310.987 290.177C311.439 289.016 311.439 289.016 311.899 287.831C312.513 286.253 313.127 284.674 313.742 283.095C315.302 279.082 316.855 275.065 318.409 271.049C321.64 262.703 324.89 254.364 328.148 246.028C332.643 234.525 337.116 223.012 341.577 211.496C345.839 200.497 350.106 189.501 354.396 178.514C355.147 176.59 355.897 174.667 356.646 172.743C358.944 166.852 361.249 160.965 363.575 155.085C384.404 105.921 384.404 105.921 378.583 54.5002C373.327 43.1741 364.965 34.8694 353.415 30.0338C325.063 20.0405 298.169 34.5125 280.043 56.4366ZM403.352 79.8898C402.629 81.3531 402.629 81.3531 402.1 83.0061C401.88 83.6389 401.661 84.2717 401.435 84.9237C401.203 85.6148 400.971 86.306 400.732 87.018C400.481 87.7466 400.231 88.4751 399.972 89.2257C399.142 91.6432 398.321 94.0638 397.5 96.4844C396.917 98.1878 396.333 99.8909 395.748 101.594C394.533 105.136 393.32 108.679 392.11 112.223C389.628 119.483 387.108 126.73 384.588 133.978C383.231 137.882 381.877 141.788 380.522 145.693C379.979 147.26 379.435 148.826 378.891 150.393C378.622 151.169 378.353 151.944 378.076 152.743C377.261 155.093 376.445 157.443 375.63 159.794C375.361 160.569 375.092 161.345 374.815 162.144C374.271 163.711 373.727 165.277 373.184 166.844C371.826 170.758 370.468 174.672 369.111 178.586C366.377 186.469 363.64 194.35 360.9 202.23C358.446 209.287 355.998 216.345 353.556 223.406C352.233 227.228 350.909 231.049 349.578 234.868C326.462 296.159 326.462 296.159 332.414 359.271C337.18 368.959 344.119 376.042 354.239 379.937C357.047 380.724 359.78 381.193 362.68 381.471C363.219 381.526 363.757 381.58 364.311 381.636C382.159 382.481 397.813 372.712 410.534 361.162C440.369 333.262 456.41 291.916 469.347 254.086C469.618 253.327 469.889 252.569 470.168 251.787C470.386 251.138 470.605 250.489 470.831 249.82C471.012 249.297 471.193 248.773 471.38 248.233C472.265 242.232 469.781 236.207 468.016 230.57C467.72 229.612 467.425 228.654 467.12 227.667C466.312 225.046 465.496 222.427 464.68 219.809C463.988 217.588 463.3 215.366 462.612 213.145C460.441 206.134 458.259 199.126 456.073 192.12C455.546 190.432 455.02 188.743 454.493 187.055C446.887 162.647 439.209 138.261 431.479 113.892C430.985 112.335 430.491 110.777 429.997 109.219C428.522 104.568 427.043 99.918 425.552 95.2719C424.655 92.4772 423.776 89.679 422.926 86.8697C422.759 86.3311 422.591 85.7926 422.419 85.2378C422.007 83.9118 421.606 82.5825 421.205 81.2529C419.849 78.2771 417.907 75.9165 414.842 74.635C409.767 74.0642 406.706 76.1169 403.352 79.8898ZM312.033 323.15C312.801 324.685 312.801 324.685 312.801 324.685L312.033 323.15Z" fill="#F9CDE9"/>
</g>
</svg>
