<svg id="Слой_1" data-name="Слой 1" xmlns="http://www.w3.org/2000/svg" xmlns:xlink="http://www.w3.org/1999/xlink" viewBox="0 0 318.09 30"><defs><style>.cls-1{fill:none;}.cls-2{clip-path:url(#clip-path);}.cls-3{fill:#e479bd;stroke:#e479bd;}.cls-4{fill:#fff;}</style><clipPath id="clip-path"><rect class="cls-1" x="-152.14" width="1920" height="30"/></clipPath></defs><title>Монтажная область 1</title><g class="cls-2"><rect class="cls-3" x="-151.64" y="0.5" width="2009" height="29"/><path class="cls-4" d="M6.19,12.59c0,3.24,2.68,5,4.64,6.52a3.78,3.78,0,0,0,2,1.06,3.79,3.79,0,0,0,2-1.06c2-1.55,4.64-3.28,4.64-6.52s-3.66-5.54-6.66-2.42C9.86,7.05,6.19,9.35,6.19,12.59Z"/><path class="cls-4" d="M34.13,19V9.2h6.16v1.39H35.7v2.66h1.79A4.07,4.07,0,0,1,40,14a2.53,2.53,0,0,1,1,2.14,2.81,2.81,0,0,1-.42,1.57,2.49,2.49,0,0,1-1.2,1,4.66,4.66,0,0,1-1.89.34Zm1.57-1.23h1.69a2.26,2.26,0,0,0,1.47-.42,1.48,1.48,0,0,0,.52-1.21,1.52,1.52,0,0,0-.52-1.21,2,2,0,0,0-1.4-.45H35.7ZM46,19.21a4,4,0,0,1-2-.46,3.19,3.19,0,0,1-1.32-1.28,3.74,3.74,0,0,1-.47-1.92,3.92,3.92,0,0,1,.27-1.47,3.47,3.47,0,0,1,1.93-1.95,3.92,3.92,0,0,1,1.47-.27,3.58,3.58,0,0,1,1.53.31,2.85,2.85,0,0,1,1.11.85,3.14,3.14,0,0,1,.63,1.28,3.77,3.77,0,0,1,.06,1.58H43.68A2.06,2.06,0,0,0,44,17a1.87,1.87,0,0,0,.82.72A2.92,2.92,0,0,0,46,18a3.63,3.63,0,0,0,1.14-.18,3.1,3.1,0,0,0,1-.53l.59,1.11a3.14,3.14,0,0,1-.81.47,5.6,5.6,0,0,1-1,.28A5.1,5.1,0,0,1,46,19.21Zm-2.19-4.47H47.7a1.65,1.65,0,0,0-.5-1.23,1.91,1.91,0,0,0-1.36-.45,2.21,2.21,0,0,0-1.42.45A1.73,1.73,0,0,0,43.78,14.74Zm10.28,4.47a3.91,3.91,0,0,1-2-.48,3.58,3.58,0,0,1-1.34-1.31,4,4,0,0,1-.2-3.35,3.59,3.59,0,0,1,.82-1.17,3.71,3.71,0,0,1,1.23-.77,4.31,4.31,0,0,1,1.55-.27,4.15,4.15,0,0,1,1.29.19,3.44,3.44,0,0,1,1.11.57l-.75,1.17a2.18,2.18,0,0,0-.74-.43,2.8,2.8,0,0,0-.88-.13A2.71,2.71,0,0,0,53,13.5a1.9,1.9,0,0,0-.82.79,2.5,2.5,0,0,0-.29,1.24,2.27,2.27,0,0,0,.63,1.7,2.39,2.39,0,0,0,1.73.61,2.67,2.67,0,0,0,1-.18,2.41,2.41,0,0,0,.77-.51l.74,1.16a4.46,4.46,0,0,1-1.24.66A4.11,4.11,0,0,1,54.06,19.21Zm4-.21V12.07h6.55V19H63.11V13.34H59.64V19Zm8.43.12L66,17.73A2,2,0,0,0,67,17.16a2.08,2.08,0,0,0,.42-1.09,14.76,14.76,0,0,0,.09-1.81V12.07h5.63V19H71.64V13.34H69v.92a15.72,15.72,0,0,1-.1,1.94,4.83,4.83,0,0,1-.37,1.41,2.5,2.5,0,0,1-.75.95A3.34,3.34,0,0,1,66.53,19.12Zm11.73.09a3.47,3.47,0,0,1-1.83-.48,3.35,3.35,0,0,1-1.25-1.31,3.88,3.88,0,0,1-.45-1.89A4.11,4.11,0,0,1,75,14.07a3.51,3.51,0,0,1,.73-1.17,3.25,3.25,0,0,1,1.12-.77,3.67,3.67,0,0,1,1.42-.27,3.15,3.15,0,0,1,1.71.43A3.07,3.07,0,0,1,81,13.41l-.22.33V12.07h1.37V19H80.81V17.33l.22.33A3.07,3.07,0,0,1,80,18.78,3.15,3.15,0,0,1,78.26,19.21Zm.2-1.37a2.33,2.33,0,0,0,1.13-.27,2.1,2.1,0,0,0,.78-.81,2.82,2.82,0,0,0,0-2.45,1.94,1.94,0,0,0-.78-.8,2.42,2.42,0,0,0-2.26,0,1.94,1.94,0,0,0-.78.8,2.82,2.82,0,0,0,0,2.45,2.1,2.1,0,0,0,.78.81A2.33,2.33,0,0,0,78.46,17.84ZM85.87,19V13.34H83.6V12.07h6.09v1.27H87.41V19Zm5.24,0V12.07h1.54v2.67h3.47V12.07h1.54V19H96.12V16H92.65v3Zm11.62.21a3.47,3.47,0,0,1-1.83-.48,3.42,3.42,0,0,1-1.25-1.31,3.88,3.88,0,0,1-.44-1.89,4.11,4.11,0,0,1,.25-1.46,3.68,3.68,0,0,1,.73-1.17,3.35,3.35,0,0,1,1.12-.77,3.7,3.7,0,0,1,1.42-.27,3.15,3.15,0,0,1,1.71.43,3,3,0,0,1,1.06,1.12l-.22.33V12.07h1.37V19h-1.37V17.33l.22.33a3,3,0,0,1-1.06,1.12A3.15,3.15,0,0,1,102.73,19.21Zm.21-1.37a2.29,2.29,0,0,0,1.12-.27,2.1,2.1,0,0,0,.78-.81,2.73,2.73,0,0,0,0-2.45,1.94,1.94,0,0,0-.78-.8,2.19,2.19,0,0,0-1.12-.28,2.24,2.24,0,0,0-1.14.28,2,2,0,0,0-.77.8,2.4,2.4,0,0,0-.29,1.22,2.41,2.41,0,0,0,.29,1.23,2.14,2.14,0,0,0,.77.81A2.34,2.34,0,0,0,102.94,17.84ZM108.31,19,111,15.45l.34,1a3.49,3.49,0,0,1-1.47-.25,2,2,0,0,1-.93-.74,2,2,0,0,1-.32-1.14,2,2,0,0,1,.36-1.2,2.14,2.14,0,0,1,1-.77,3.93,3.93,0,0,1,1.52-.27h3V19H113V13.24h-1.35a2.05,2.05,0,0,0-1.13.26.88.88,0,0,0-.38.77,1,1,0,0,0,.35.79,1.69,1.69,0,0,0,1,.27h1.68v1.12H112L110.07,19Zm16.77,0V13.34h-2.8v.92a12.6,12.6,0,0,1-.11,1.71,4.59,4.59,0,0,1-.4,1.34,2.55,2.55,0,0,1-.8,1,3.42,3.42,0,0,1-1.31.56l-.38-1.05a1.64,1.64,0,0,0,1-.6,2.61,2.61,0,0,0,.45-1.16,10.91,10.91,0,0,0,.12-1.75V12.07h5.77V19Zm-5.8,2.1V17.77l1,.1.24-.14H128V21.1h-1.4V19h-5.92v2.1Zm13.14-1.89a3.81,3.81,0,0,1-1.94-.5,3.61,3.61,0,0,1-1.81-3.18,3.59,3.59,0,0,1,.27-1.39,3.65,3.65,0,0,1,.79-1.18,3.67,3.67,0,0,1,2.7-1.1,3.7,3.7,0,0,1,3.27,1.84,3.63,3.63,0,0,1,.48,1.83,3.7,3.7,0,0,1-1.06,2.58,3.69,3.69,0,0,1-1.19.81A3.87,3.87,0,0,1,132.42,19.21Zm0-1.37a2.34,2.34,0,0,0,1.14-.27,2.05,2.05,0,0,0,.79-.81,2.73,2.73,0,0,0,0-2.45,1.91,1.91,0,0,0-.79-.8,2.24,2.24,0,0,0-1.14-.28,2.3,2.3,0,0,0-1.15.28,1.94,1.94,0,0,0-.78.8,2.5,2.5,0,0,0-.28,1.22,2.41,2.41,0,0,0,.29,1.23,2.1,2.1,0,0,0,.78.81A2.4,2.4,0,0,0,132.42,17.84ZM141,19.21a3.88,3.88,0,0,1-1.94-.48,3.54,3.54,0,0,1-1.35-1.31,3.9,3.9,0,0,1-.19-3.35,3.41,3.41,0,0,1,.81-1.17,3.71,3.71,0,0,1,1.23-.77,4.35,4.35,0,0,1,1.55-.27,4.11,4.11,0,0,1,1.29.19,3.44,3.44,0,0,1,1.11.57l-.74,1.17a2.33,2.33,0,0,0-.75-.43,2.75,2.75,0,0,0-.88-.13,2.71,2.71,0,0,0-1.25.27,2,2,0,0,0-.82.79,2.5,2.5,0,0,0-.29,1.24,2.27,2.27,0,0,0,.63,1.7,2.39,2.39,0,0,0,1.73.61,2.67,2.67,0,0,0,1-.18,2.41,2.41,0,0,0,.77-.51l.74,1.16a4.55,4.55,0,0,1-1.23.66A4.21,4.21,0,0,1,141,19.21Zm5.59-.21V13.34h-2.27V12.07h6.09v1.27H148.1V19Zm8.17.21a3.53,3.53,0,0,1-1.84-.48,3.4,3.4,0,0,1-1.24-1.31,3.88,3.88,0,0,1-.45-1.89,4.11,4.11,0,0,1,.26-1.46,3.36,3.36,0,0,1,.73-1.17,3.16,3.16,0,0,1,1.12-.77,3.63,3.63,0,0,1,1.42-.27,3.15,3.15,0,0,1,1.71.43,3,3,0,0,1,1.05,1.12l-.21.33V12.07h1.37V19h-1.37V17.33l.21.33a3,3,0,0,1-1.05,1.12A3.15,3.15,0,0,1,154.73,19.21Zm.2-1.37a2.33,2.33,0,0,0,1.13-.27,2,2,0,0,0,.77-.81,2.41,2.41,0,0,0,.29-1.23,2.4,2.4,0,0,0-.29-1.22,1.86,1.86,0,0,0-.77-.8,2.42,2.42,0,0,0-2.26,0,1.94,1.94,0,0,0-.78.8,2.73,2.73,0,0,0,0,2.45,2.1,2.1,0,0,0,.78.81A2.33,2.33,0,0,0,154.93,17.84ZM160.79,19V12.07h3.3a3.48,3.48,0,0,1,1.89.45,1.48,1.48,0,0,1,.7,1.34,1.36,1.36,0,0,1-.2.75,1.53,1.53,0,0,1-.56.54,2.82,2.82,0,0,1-.83.32l0-.35a2.52,2.52,0,0,1,1.42.61A1.61,1.61,0,0,1,167,17a1.83,1.83,0,0,1-.33,1.09,2.1,2.1,0,0,1-.95.7,3.85,3.85,0,0,1-1.48.25Zm1.49-1.14H164a2.07,2.07,0,0,0,1.07-.23.78.78,0,0,0,.38-.7.74.74,0,0,0-.37-.67A2,2,0,0,0,164,16h-1.94V14.93h1.78a2.12,2.12,0,0,0,1-.2.7.7,0,0,0,.36-.66.71.71,0,0,0-.36-.66,2,2,0,0,0-1-.21h-1.58ZM173.33,19,171,15.32l2.14-3.25h1.64l-2.12,3.18L175.17,19Zm-4.61,0V12.07h1.54v2.67h2.09V16h-2.09v3Zm10.6.21a3.47,3.47,0,0,1-1.83-.48,3.42,3.42,0,0,1-1.25-1.31,3.88,3.88,0,0,1-.44-1.89,4.11,4.11,0,0,1,.25-1.46,3.68,3.68,0,0,1,.73-1.17,3.35,3.35,0,0,1,1.12-.77,3.7,3.7,0,0,1,1.42-.27,3.15,3.15,0,0,1,1.71.43,3,3,0,0,1,1.06,1.12l-.22.33V12.07h1.37V19h-1.37V17.33l.22.33A3,3,0,0,1,181,18.78,3.15,3.15,0,0,1,179.32,19.21Zm.21-1.37a2.29,2.29,0,0,0,1.12-.27,2.1,2.1,0,0,0,.78-.81,2.73,2.73,0,0,0,0-2.45,1.94,1.94,0,0,0-.78-.8,2.19,2.19,0,0,0-1.12-.28,2.24,2.24,0,0,0-1.14.28,2,2,0,0,0-.77.8,2.4,2.4,0,0,0-.29,1.22,2.41,2.41,0,0,0,.29,1.23,2.14,2.14,0,0,0,.77.81A2.34,2.34,0,0,0,179.53,17.84ZM192,19.21a3.79,3.79,0,0,1-1.94-.5,3.65,3.65,0,0,1-1.82-3.18,3.42,3.42,0,0,1,.28-1.39,3.47,3.47,0,0,1,.78-1.18,3.72,3.72,0,0,1,2.7-1.1,3.72,3.72,0,0,1,1.93.5,3.66,3.66,0,0,1,1.34,1.34,3.63,3.63,0,0,1,.48,1.83,3.5,3.5,0,0,1-.28,1.4,3.6,3.6,0,0,1-.77,1.18,3.67,3.67,0,0,1-2.7,1.1Zm0-1.37a2.4,2.4,0,0,0,1.14-.27,2.12,2.12,0,0,0,.79-.81,2.82,2.82,0,0,0,0-2.45,2,2,0,0,0-.79-.8,2.48,2.48,0,0,0-2.29,0,2,2,0,0,0-.79.8,2.61,2.61,0,0,0-.28,1.22,2.51,2.51,0,0,0,.29,1.23,2.1,2.1,0,0,0,.78.81A2.41,2.41,0,0,0,192,17.84ZM198.83,19V13.34h-2.28V12.07h6.1v1.27h-2.28V19Zm11.27.21a5.44,5.44,0,0,1-1.2-.13,5.05,5.05,0,0,1-1.08-.34,3.13,3.13,0,0,1-.81-.51l.53-1.29a3,3,0,0,0,1.12.66,4,4,0,0,0,1.35.24,2.71,2.71,0,0,0,1.15-.22,1.76,1.76,0,0,0,.76-.63,1.69,1.69,0,0,0,.27-1,1.54,1.54,0,0,0-.62-1.31,2.58,2.58,0,0,0-1.62-.47,3.88,3.88,0,0,0-.57.05,4.28,4.28,0,0,0-.59.1l-.46-1,3.07-2.85h-4.31V9.2h6.17v1.21l-2.92,2.84a4.14,4.14,0,0,1,1.65.3,2.88,2.88,0,0,1,1.24,1,2.65,2.65,0,0,1,.47,1.61,2.87,2.87,0,0,1-.46,1.62A3.23,3.23,0,0,1,212,18.83,4.43,4.43,0,0,1,210.1,19.21Zm9.22,0a3.48,3.48,0,0,1-1.68-.4,3.64,3.64,0,0,1-1.27-1.11,5.26,5.26,0,0,1-.79-1.63,7,7,0,0,1-.27-2,7,7,0,0,1,.27-2,5.26,5.26,0,0,1,.79-1.63,3.71,3.71,0,0,1,1.27-1.1,3.48,3.48,0,0,1,1.68-.4,3.42,3.42,0,0,1,1.68.4,3.62,3.62,0,0,1,1.27,1.1,5.06,5.06,0,0,1,.8,1.63,6.67,6.67,0,0,1,.28,2,6.61,6.61,0,0,1-.28,2,5.06,5.06,0,0,1-.8,1.63A3.55,3.55,0,0,1,221,18.81,3.42,3.42,0,0,1,219.32,19.21Zm0-1.39a2,2,0,0,0,1-.25,2.38,2.38,0,0,0,.78-.74,3.3,3.3,0,0,0,.51-1.17,6.19,6.19,0,0,0,.18-1.56,5.71,5.71,0,0,0-.32-2,2.87,2.87,0,0,0-.86-1.28,2.07,2.07,0,0,0-1.31-.44,2,2,0,0,0-1,.26,2.16,2.16,0,0,0-.78.73,3.94,3.94,0,0,0-.52,1.17,6.71,6.71,0,0,0-.17,1.56,5.62,5.62,0,0,0,.31,2,2.94,2.94,0,0,0,.87,1.29A2.08,2.08,0,0,0,219.32,17.82Zm13,1.39a3.51,3.51,0,0,1-1.69-.4,3.7,3.7,0,0,1-1.26-1.11,5,5,0,0,1-.79-1.63,6.61,6.61,0,0,1-.28-2,6.67,6.67,0,0,1,.28-2,5,5,0,0,1,.79-1.63,3.77,3.77,0,0,1,1.26-1.1,3.51,3.51,0,0,1,1.69-.4,3.42,3.42,0,0,1,1.68.4,3.71,3.71,0,0,1,1.27,1.1,5.28,5.28,0,0,1,.8,1.63,7,7,0,0,1,.28,2,7,7,0,0,1-.28,2,5.28,5.28,0,0,1-.8,1.63A3.64,3.64,0,0,1,234,18.81,3.42,3.42,0,0,1,232.27,19.21Zm0-1.39a2.08,2.08,0,0,0,1-.25,2.38,2.38,0,0,0,.78-.74,3.7,3.7,0,0,0,.51-1.17,6.19,6.19,0,0,0,.18-1.56,5.71,5.71,0,0,0-.32-2,2.81,2.81,0,0,0-.87-1.28,2,2,0,0,0-1.3-.44,1.93,1.93,0,0,0-1,.26,2.19,2.19,0,0,0-.79.73,3.7,3.7,0,0,0-.51,1.17,6.21,6.21,0,0,0-.17,1.56,5.87,5.87,0,0,0,.3,2,3,3,0,0,0,.88,1.29A2.06,2.06,0,0,0,232.27,17.82Zm9.52,1.39a3.49,3.49,0,0,1-1.69-.4,3.73,3.73,0,0,1-1.27-1.11,5.26,5.26,0,0,1-.79-1.63,7,7,0,0,1-.27-2,7,7,0,0,1,.27-2,5.26,5.26,0,0,1,.79-1.63,3.8,3.8,0,0,1,1.27-1.1,3.75,3.75,0,0,1,3.37,0,3.59,3.59,0,0,1,1.26,1.1,5.06,5.06,0,0,1,.8,1.63,6.67,6.67,0,0,1,.28,2,6.61,6.61,0,0,1-.28,2,5.06,5.06,0,0,1-.8,1.63,3.52,3.52,0,0,1-1.26,1.11A3.48,3.48,0,0,1,241.79,19.21Zm0-1.39a2,2,0,0,0,1-.25,2.31,2.31,0,0,0,.79-.74,3.7,3.7,0,0,0,.51-1.17,6.71,6.71,0,0,0,.17-1.56,5.72,5.72,0,0,0-.31-2,3,3,0,0,0-.87-1.28,2,2,0,0,0-1.3-.44,2,2,0,0,0-1,.26,2.25,2.25,0,0,0-.78.73,3.7,3.7,0,0,0-.51,1.17,6.19,6.19,0,0,0-.18,1.56,5.62,5.62,0,0,0,.31,2,2.88,2.88,0,0,0,.88,1.29A2,2,0,0,0,241.79,17.82Zm9.51,1.39a3.48,3.48,0,0,1-1.68-.4,3.64,3.64,0,0,1-1.27-1.11,5,5,0,0,1-.79-1.63,7,7,0,0,1-.28-2,7,7,0,0,1,.28-2,5,5,0,0,1,.79-1.63,3.71,3.71,0,0,1,1.27-1.1A3.48,3.48,0,0,1,251.3,9a3.42,3.42,0,0,1,1.68.4,3.71,3.71,0,0,1,1.27,1.1,5.06,5.06,0,0,1,.8,1.63,7,7,0,0,1,.28,2,7,7,0,0,1-.28,2,5.06,5.06,0,0,1-.8,1.63A3.64,3.64,0,0,1,253,18.81,3.42,3.42,0,0,1,251.3,19.21Zm0-1.39a2.06,2.06,0,0,0,1-.25,2.38,2.38,0,0,0,.78-.74,3.3,3.3,0,0,0,.51-1.17,6.19,6.19,0,0,0,.18-1.56,5.71,5.71,0,0,0-.32-2,2.81,2.81,0,0,0-.87-1.28,2,2,0,0,0-1.3-.44,2,2,0,0,0-1,.26,2.19,2.19,0,0,0-.79.73,3.7,3.7,0,0,0-.51,1.17,6.71,6.71,0,0,0-.17,1.56,5.62,5.62,0,0,0,.31,2,2.94,2.94,0,0,0,.87,1.29A2.06,2.06,0,0,0,251.3,17.82Zm9.27,4.12V12.07H262v1a3.19,3.19,0,0,1,1.06-.85,3.46,3.46,0,0,1,1.59-.33,3.36,3.36,0,0,1,1.8.48,3.3,3.3,0,0,1,1.23,1.31,3.87,3.87,0,0,1,.44,1.88,4,4,0,0,1-.25,1.44,3.7,3.7,0,0,1-.72,1.17,3.26,3.26,0,0,1-1.11.79,3.68,3.68,0,0,1-2.84,0,3.3,3.3,0,0,1-1-.79v3.81Zm3.75-4.1a2.34,2.34,0,0,0,1.14-.27,2.05,2.05,0,0,0,.79-.81,2.82,2.82,0,0,0,0-2.45,2,2,0,0,0-.8-.8,2.23,2.23,0,0,0-1.13-.28,2.3,2.3,0,0,0-1.15.28,1.94,1.94,0,0,0-.78.8,2.73,2.73,0,0,0,0,2.45,2.1,2.1,0,0,0,.78.81A2.41,2.41,0,0,0,264.32,17.84Zm5.83,4.3a3.14,3.14,0,0,1-.75-.09,2.27,2.27,0,0,1-.71-.29l.35-1.31a1.75,1.75,0,0,0,.48.21,1.61,1.61,0,0,0,.46.07,1.22,1.22,0,0,0,.77-.23,1.61,1.61,0,0,0,.44-.72l.23-.67-2.73-7h1.69l1.91,5.38,1.87-5.38h1.63l-3,7.93a4.7,4.7,0,0,1-.72,1.3,2.21,2.21,0,0,1-.88.65A3.05,3.05,0,0,1,270.15,22.14Zm10.38-2.93a4.06,4.06,0,0,1-1.59-.3,3.26,3.26,0,0,1-1.2-.87,3.89,3.89,0,0,1-.76-1.39,6.06,6.06,0,0,1-.26-1.88,11.71,11.71,0,0,1,.17-2.07,5.14,5.14,0,0,1,.57-1.59,3.2,3.2,0,0,1,1-1.1,4.4,4.4,0,0,1,1.56-.63l3.32-.67.25,1.34-3.23.62a2.92,2.92,0,0,0-1.27.54,2.22,2.22,0,0,0-.68.94,5.6,5.6,0,0,0-.29,1.36,3.38,3.38,0,0,1,1.1-1,3.15,3.15,0,0,1,1.54-.35,3.28,3.28,0,0,1,1.74.46,3.37,3.37,0,0,1,1.19,1.24,3.61,3.61,0,0,1,.43,1.73,3.72,3.72,0,0,1-.26,1.38A3.39,3.39,0,0,1,282,18.93,3.67,3.67,0,0,1,280.53,19.21Zm0-1.37a2.17,2.17,0,0,0,1.09-.26,2,2,0,0,0,.75-.76,2.48,2.48,0,0,0,.28-1.18,2.41,2.41,0,0,0-.28-1.17,1.89,1.89,0,0,0-.75-.76,2.18,2.18,0,0,0-1.09-.27,2.2,2.2,0,0,0-1.09.27,1.89,1.89,0,0,0-.75.76,2.41,2.41,0,0,0-.27,1.17,2.48,2.48,0,0,0,.27,1.18,2,2,0,0,0,.75.76A2.2,2.2,0,0,0,280.49,17.84Zm5,1.28L285,17.73a2,2,0,0,0,1-.57,2.08,2.08,0,0,0,.42-1.09,14.76,14.76,0,0,0,.09-1.81V12.07h5.63V19h-1.54V13.34H288v.92a15.72,15.72,0,0,1-.1,1.94,4.83,4.83,0,0,1-.37,1.41,2.48,2.48,0,0,1-.74.95A3.47,3.47,0,0,1,285.51,19.12Zm12,.09a4,4,0,0,1-2-.46,3.28,3.28,0,0,1-1.33-1.28,3.84,3.84,0,0,1-.46-1.92,3.92,3.92,0,0,1,.27-1.47,3.47,3.47,0,0,1,1.93-1.95,3.91,3.91,0,0,1,1.46-.27,3.59,3.59,0,0,1,1.54.31A2.92,2.92,0,0,1,300,13a3.14,3.14,0,0,1,.63,1.28,3.77,3.77,0,0,1,.06,1.58h-5.53a1.89,1.89,0,0,0,1.09,1.81,3,3,0,0,0,1.27.26,3.67,3.67,0,0,0,1.14-.18,3.21,3.21,0,0,0,1-.53l.59,1.11a3.14,3.14,0,0,1-.81.47,5.6,5.6,0,0,1-1,.28A5.11,5.11,0,0,1,297.47,19.21Zm-2.19-4.47h3.93a1.65,1.65,0,0,0-.5-1.23,1.91,1.91,0,0,0-1.36-.45,2.21,2.21,0,0,0-1.42.45A1.74,1.74,0,0,0,295.28,14.74Zm7,4.26V12.07h1.49v4.68l3.76-4.68h1.35V19h-1.49V14.27L303.64,19Zm3.3-8.12a2.89,2.89,0,0,1-1.37-.32,2.36,2.36,0,0,1-.91-.89,2.52,2.52,0,0,1-.3-1.3h1.29a1.43,1.43,0,0,0,.32,1,1.25,1.25,0,0,0,1,.39,1.23,1.23,0,0,0,1-.39,1.38,1.38,0,0,0,.31-1h1.3a2.43,2.43,0,0,1-.32,1.29,2.25,2.25,0,0,1-.91.9A2.74,2.74,0,0,1,305.62,10.88Z"/></g></svg>