<svg xmlns="http://www.w3.org/2000/svg" width="675" height="112" fill="none"><path fill="#E479BD" d="m131.324.594 1.585-.021 1.523-.003 1.395-.007c1.219.138 1.219.138 2.925 1.275.508 1.121.508 1.121.928 2.522l.493 1.606.521 1.765.562 1.848c.403 1.327.804 2.655 1.202 3.983.968 3.228 1.955 6.45 2.94 9.673.341 1.115.681 2.23 1.02 3.346 3.742 12.27 7.686 24.478 11.669 36.672l.396 1.213a4839.296 4839.296 0 0 0 5.722 17.403c.586 1.773 1.17 3.546 1.753 5.32.687 2.092 1.379 4.182 2.075 6.272.257.772.512 1.546.765 2.32.349 1.068.706 2.133 1.063 3.199l.6 1.814c1.171 2.819 2.619 5.199 5.254 6.815 3.156 1.052 6.222 1.023 9.277-.356 2.127-1.199 3.251-2.567 4.371-4.762.56-2.178.643-4.231.649-6.475l.01-2.223.001-2.426.009-2.565c.007-2.319.011-4.638.014-6.958l.006-4.351c.008-4.543.014-9.085.016-13.628.002-5.236.012-10.472.029-15.708.012-4.052.018-8.104.018-12.157.001-2.418.004-4.836.015-7.254.009-2.275.01-4.551.005-6.827 0-.833.002-1.665.008-2.497.131-7.637.131-7.637-3.41-14.1-2.264-1.426-4.469-2.213-7.037-2.915L180.265.7h106.339v2.274l-1.079.334-1.409.448-1.399.44c-1.324.427-1.324.427-2.368 1.622-.36 3.837.575 6.888 1.826 10.491l.565 1.681c.595 1.762 1.199 3.52 1.803 5.278l1.204 3.565c1.996 6.034 1.996 6.034 4.269 11.967l.327-.977c3.304-9.744 6.983-19.638 13.89-27.456l.822-1.064c3.802-4.83 9.45-8.049 15.571-8.801 4.921-.158 8.672.829 12.502 3.965 2.373 2.232 3.639 4.534 4.656 7.606 1.32-3.025 1.882-5.242 1.654-8.541.052-1.126.052-1.126 1.189-2.832 1.198-.212 1.198-.212 2.663-.207l1.599.001 1.673.028 1.667-.006c4.112.032 4.112.032 6.046 1.321.471 1.015.471 1.015.841 2.263l.435 1.432.456 1.572.496 1.646c.354 1.182.707 2.364 1.056 3.548.95 3.21 1.923 6.415 2.891 9.62l.601 1.995a1158.87 1158.87 0 0 0 6.238 19.98 5227.959 5227.959 0 0 0 10.026 30.887c.581 1.775 1.16 3.551 1.739 5.328.689 2.112 1.38 4.222 2.074 6.332l.762 2.334a349.84 349.84 0 0 0 2.524 7.46l.402 1.155c.411 1.162.839 2.316 1.271 3.47l.761 2.064c1.401 2.639 3.148 4.177 5.953 5.325 2.859-.11 5.27-1.18 7.535-2.915 3.035-3.805 2.596-8.085 2.569-12.721l.012-2.672c.011-2.41.007-4.822-.001-7.233-.005-2.526 0-5.053.004-7.58.004-4.243-.002-8.486-.013-12.73-.012-4.9-.008-9.8.005-14.7.01-4.214.011-8.426.005-12.64-.003-2.513-.004-5.027.004-7.54.006-2.364.002-4.728-.011-7.092-.003-.865-.002-1.731.003-2.597.119-6.122.119-6.122-2.577-11.442-1.324-1.01-1.324-1.01-2.808-1.599-.474-.215-.948-.43-1.437-.65a328.582 328.582 0 0 0-4.285-1.731L392.375.7a213.37 213.37 0 0 1 7.219-.344 85.59 85.59 0 0 0 2.449-.128c6.745-.44 6.745-.44 9.721 1.792 1.445 1.58 2.696 3.184 3.926 4.935.765.952 1.534 1.9 2.31 2.843l1.106 1.406c2.046 2.595 4.155 5.138 6.251 7.693l2.559 3.128 1.28 1.563 14.074 17.202 1.284 1.569c.839 1.026 1.678 2.054 2.515 3.083a517.714 517.714 0 0 0 7.041 8.463 295.931 295.931 0 0 1 6.344 7.728c1.707 2.13 3.437 4.24 5.172 6.346l1.03 1.254a385.706 385.706 0 0 0 7.492 8.842c1.82 2.113 1.82 2.113 1.82 3.375l2.843-1.138c.054-9.05.094-18.102.118-27.153.012-4.202.028-8.405.054-12.608.023-3.664.037-7.328.042-10.992.003-1.94.01-3.878.027-5.818.016-2.167.019-4.334.018-6.501l.024-1.939c-.019-3.673-.349-5.937-2.557-8.915-2.56-2.143-5.376-3.055-8.53-3.98L468.576.7c5.215-.066 10.429-.117 15.645-.148 2.422-.014 4.843-.035 7.265-.067 2.338-.03 4.675-.048 7.013-.055.891-.005 1.782-.016 2.673-.03 1.25-.022 2.499-.024 3.749-.023l2.155-.02c2.384.436 3.183 1.36 4.718 3.186l1.053 1.117c2.558 2.846 4.93 5.804 7.274 8.826 2.207 2.83 4.52 5.555 6.869 8.268a212.698 212.698 0 0 1 5.889 7.139c2.039 2.57 4.13 5.096 6.21 7.632l2.559 3.128 1.291 1.577 2.448 2.994c1.311 1.605 2.624 3.21 3.938 4.812l.901 1.098c3.44 4.195 6.886 8.383 10.401 12.514 1.735 2.04 3.449 4.091 5.118 6.184l1.073 1.34c.719.91 1.435 1.82 2.141 2.74a508.17 508.17 0 0 0 2.935 3.775l.943 1.248.912 1.155.805 1.046c1.27 1.018 2.187.799 3.773.745.04-9.06.07-18.122.088-27.183.009-4.207.021-8.414.041-12.621.017-3.668.028-7.335.031-11.003.003-1.941.008-3.883.02-5.824.013-2.169.014-4.337.014-6.506l.018-1.945c-.016-4.105-.407-6.727-3.375-9.768-2.267-1.773-4.953-2.674-7.642-3.625L568.091.7h25.021v2.274l-1.268.398c-3.716 1.242-6.611 2.28-8.459 5.977-.628 1.959-.653 3.62-.656 5.677l-.006 1.23c-.006 1.356-.003 2.711-.001 4.067-.002.974-.006 1.947-.009 2.92-.007 2.095-.01 4.189-.01 6.283-.001 3.309-.012 6.618-.023 9.927-.028 8.216-.046 16.433-.058 24.65-.009 6.389-.022 12.778-.047 19.168-.013 3.292-.017 6.584-.016 9.876-.001 2.044-.009 4.087-.019 6.13-.003.951-.003 1.902 0 2.852.003 1.293-.004 2.586-.013 3.879l-.004 2.197-.215 1.678c-1.706 1.137-1.706 1.137-3.61 1.135-2.554-.697-3.629-1.914-5.169-3.943l-.818-1.021a268.316 268.316 0 0 1-2.345-2.995c-.722-.902-1.444-1.802-2.168-2.702l-1.08-1.361a581.182 581.182 0 0 0-5.247-6.422l-1.05-1.274-2.038-2.47c-2.414-2.929-4.813-5.871-7.214-8.811a3631.742 3631.742 0 0 0-8.98-10.933c-2.233-2.71-4.459-5.425-6.681-8.144a2493.018 2493.018 0 0 0-5.349-6.504c-2.647-3.213-5.291-6.43-7.925-9.654-.793-.97-1.586-1.938-2.381-2.905-3.619-4.407-7.179-8.858-10.734-13.315l-2.843.569a9039.05 9039.05 0 0 0-.118 28.042c-.012 4.34-.028 8.681-.054 13.022-.023 3.784-.037 7.568-.042 11.352-.003 2.002-.01 4.005-.027 6.008a751.375 751.375 0 0 0-.017 6.714l-.025 2.003c.019 3.714.304 6.056 2.557 9.059 1.324 1.011 1.324 1.011 2.808 1.6l1.437.65c1.425.587 2.853 1.164 4.285 1.731l-.568 1.706h-25.59v-2.275l1.104-.253c3.433-.89 6.346-1.974 8.563-4.865.976-2.462 1.281-4.523 1.286-7.163l.012-2.259-.004-2.457.008-2.604c.008-2.353.008-4.705.007-7.057-.001-1.966.002-3.931.005-5.897.006-4.638.006-9.277.003-13.915-.003-4.78.004-9.561.016-14.342.01-4.109.013-8.218.011-12.327-.001-2.452.001-4.904.009-7.356.007-2.306.006-4.613-.002-6.919-.001-.845 0-1.69.005-2.534.165-6.567.165-6.567-2.738-12.244-2.671-2.044-4.283-3.047-7.681-2.939-3.16.518-5.09 1.952-7.037 4.478-1.531 2.721-1.601 4.844-1.611 7.96l-.006 1.214c-.006 1.342-.008 2.684-.01 4.026l-.012 2.886a4291.18 4291.18 0 0 0-.02 6.215c-.009 3.273-.022 6.546-.037 9.819-.04 9.307-.074 18.614-.103 27.92-.017 5.141-.037 10.282-.061 15.422a3534.7 3534.7 0 0 0-.032 9.77c-.005 2.02-.015 4.043-.026 6.064-.005.941-.007 1.881-.007 2.822a614.12 614.12 0 0 1-.017 3.838l-.008 2.173c-.147 1.662-.147 1.662-1.284 2.799-1.6.249-1.6.249-3.412 0-2.442-2.172-4.447-4.72-6.504-7.251l-2.119-2.59-1.092-1.336c-1.743-2.132-3.496-4.256-5.248-6.38a3692.585 3692.585 0 0 1-10.089-12.307 3279.667 3279.667 0 0 0-7.931-9.658c-3.432-4.165-6.852-8.34-10.267-12.52a3127.088 3127.088 0 0 0-7.93-9.658c-3.04-3.69-6.074-7.386-9.098-11.089-1.324-1.62-2.648-3.24-3.979-4.855a95.028 95.028 0 0 1-2.012-2.55c-.774-1.042-.774-1.042-1.971-2.262h-2.274c-.705 1.41-.644 2.348-.649 3.924l-.01 1.786-.001 1.966-.009 2.066c-.007 1.872-.011 3.745-.014 5.618l-.006 3.513a6714.18 6714.18 0 0 0-.016 10.993c-.002 4.227-.012 8.454-.029 12.68-.012 3.27-.018 6.538-.018 9.806-.001 1.952-.004 3.903-.015 5.854-.009 2.18-.008 4.359-.005 6.538l-.015 1.95c.022 4.295.353 7.252 3.381 10.502 2.246 1.722 4.932 2.326 7.642 2.985l-.569 2.275h-56.297l-.569-2.275 1.06-.313 1.392-.433 1.38-.42c1.372-.576 2.066-1.092 2.992-2.246 1.431-4.292.211-7.992-1.173-12.113l-.535-1.65c-.562-1.73-1.133-3.455-1.704-5.18-.57-1.736-1.138-3.473-1.704-5.21a528.018 528.018 0 0 0-1.063-3.232l-.483-1.473-.428-1.294c-.303-1.124-.303-1.124-.303-2.83h-1.137l-.438 2.23c-.638 2.861-1.634 5.464-2.796 8.148l-.612 1.425c-4.396 10.086-10.335 21.41-21.06 25.837-4.211 1.063-9.317 1.336-13.372-.299-3.302-2.045-5.26-4.799-6.317-8.53-.37-1.704-.526-3.36-.656-5.098l-.141-1.845-.101-1.396-.477 1.425a695.494 695.494 0 0 1-1.796 5.253c-.26.755-.516 1.512-.769 2.27a267.914 267.914 0 0 1-1.123 3.269l-.677 1.985c-.961 1.958-1.858 2.83-3.688 3.995-1.959.262-1.959.262-4.051.213l-2.102-.022c-1.808-.191-1.808-.191-3.514-1.328-.507-1.122-.507-1.122-.928-2.522l-.492-1.607-.521-1.765-.563-1.848c-.403-1.327-.804-2.655-1.202-3.983-.967-3.226-1.953-6.446-2.938-9.667l-1.019-3.343c-3.521-11.547-7.227-23.035-10.966-34.513l-1.48-4.554c-1.53-4.71-3.066-9.42-4.615-14.124-.694-2.106-1.385-4.212-2.07-6.32a951.565 951.565 0 0 0-1.953-5.94c-.356-1.074-.703-2.151-1.051-3.229-1.486-4.438-3.121-8.869-6.952-11.788-1.473-.66-1.473-.66-3.625-1.137l1.137 10.236-2.274.569-.711-1.413-.995-1.857-.96-1.84c-1.664-2.17-3.29-3.195-5.864-3.989-2.878-.311-5.744-.28-8.634-.242l-2.501.006a678.5 678.5 0 0 0-5.212.033c-2.231.023-4.462.033-6.693.038-2.129.006-4.257.017-6.386.03l-1.234.005c-1.145.007-2.289.018-3.434.03l-1.975.016c-1.424-.081-1.424-.081-2.031.653a55.03 55.03 0 0 0-.065 3.04v1.966l.009 2.14.003 2.177c.002 1.914.007 3.828.014 5.742.005 1.951.008 3.902.011 5.854.006 3.832.016 7.663.028 11.494 3.824.058 7.649.098 11.474.125 1.301.012 2.601.027 3.902.047 1.872.028 3.743.04 5.615.05l1.756.036c3.425.001 5.342-.27 7.96-2.532 2.312-2.312 3.098-4.891 3.981-7.962l1.706.57v42.649h-2.275l-.064-1.71c-.526-11.883-.526-11.883-6.022-22.103-3.984-3.603-8.16-4.123-13.417-4.127l-1.163-.002c-.805 0-1.609 0-2.414.003-1.234.003-2.468 0-3.702-.004l-2.353.003-2.154.002c-1.652-.044-1.652-.044-2.83.642-.014 8.072-.024 16.144-.03 24.216-.003 3.747-.007 7.495-.013 11.243-.006 3.613-.01 7.226-.011 10.84a2864.55 2864.55 0 0 1-.006 4.146c-.005 1.928-.005 3.856-.005 5.784l-.006 1.751.002 1.582-.001 1.384c-.044 1.049-.044 1.049.638 1.607 1.145.065 2.292.09 3.438.1l2.232.022 2.436.013 1.236.007c2.162.012 4.324.02 6.487.025 2.226.007 4.452.026 6.678.049 1.717.015 3.434.019 5.151.022.82.002 1.64.009 2.46.019 4.573.056 8.107.079 11.963-2.532 1.3-1.654 1.3-1.654 2.168-3.519 1.656-3.253 1.656-3.253 3.519-3.874.586 1.83.531 3.093.146 4.965l-.308 1.525-.336 1.578-.322 1.598c-.804 3.9-.804 3.9-1.455 4.551a94.07 94.07 0 0 1-4.148.068l-1.332.002c-1.483.001-2.967-.002-4.45-.006l-3.177.001c-2.885 0-5.769-.004-8.653-.007-3.011-.004-6.022-.004-9.032-.005-5.706-.002-11.412-.006-17.117-.012-6.494-.007-12.988-.01-19.481-.013-13.362-.005-26.725-.015-40.087-.028v-2.275l1.06-.273c2.882-.825 2.882-.825 5.231-2.606 1.462-4.58.287-8.948-1.188-13.365l-.532-1.655c-.556-1.725-1.124-3.446-1.692-5.167l-1.136-3.524c-1.036-3.2-1.036-3.2-2.085-6.396l-.424-1.29c-.295-.983-.295-.983-.94-1.55l-.71 2.044c-4.258 12.026-10.145 27.487-22.143 33.818-5.201 2.271-10.089 2.986-15.569 1.193-2.908-1.387-4.617-3.646-5.986-6.511-5.556-15.792 5.429-37.141 10.478-52.021l.409-1.209a3460.53 3460.53 0 0 1 4.138-12.139c2.636-7.68 5.224-15.373 7.59-23.142l.586-1.877c1.047-3.517 1.44-6.438 1.304-10.1l.569-1.707c2.069-1.034 4.51-.673 6.788-.675Zm175.183 14.323-1.062 1.024c-5.084 5.284-8.091 12.455-10.88 19.128l-.665 1.57-.614 1.52-.542 1.332c-1.324 4.63-.917 8.037.589 12.574l.53 1.676c.568 1.788 1.15 3.57 1.733 5.354l1.178 3.682c1.144 3.576 2.308 7.145 3.478 10.712l.498 1.52c1.7 5.19 3.425 10.371 5.189 15.54 1.349.19 1.349.19 2.843 0 1.272-1.434 2.038-2.869 2.72-4.649l.551-1.42.585-1.543.631-1.637c.688-1.785 1.37-3.572 2.053-5.358l1.433-3.733c.747-1.94 1.492-3.881 2.237-5.823 1.766-4.601 3.556-9.193 5.357-13.782l2.203-5.627c.47-1.2.942-2.398 1.415-3.596 6.008-14.051 6.008-14.051 4.312-28.74-1.683-3.207-3.855-5.24-7.255-6.512-7.846-2.12-13.098 1.305-18.517 6.788Zm-180.834 5.687c-2.269 1.512-2.612 3.31-3.42 5.793l-.491 1.46a905.222 905.222 0 0 0-1.593 4.81l-1.12 3.36c-.785 2.357-1.565 4.714-2.343 7.073-.987 2.993-1.982 5.984-2.98 8.973-.774 2.32-1.544 4.64-2.313 6.96-.365 1.101-.731 2.202-1.098 3.302-6.828 17.84-6.828 17.84-5.773 36.19 1.561 2.655 3.61 4.566 6.55 5.554 3.85.619 7.212-.315 10.601-2.157 2.099-1.53 3.896-3.238 5.686-5.118l1.146-1.177c5.516-6.255 9.112-14.595 12.076-22.315l.516-1.305.452-1.248.394-1.069c.591-3.867-.82-7.693-1.984-11.33l-.492-1.569c-.525-1.673-1.056-3.345-1.588-5.017a109104.63 109104.63 0 0 1-2.728-8.636 478.51 478.51 0 0 1-3.103-10.22l-.684-2.318c-.409-1.395-.81-2.793-1.201-4.193l-.549-1.847-.451-1.582c-.592-1.354-.592-1.354-2.051-2.053l-1.459-.321Zm214.954 0c-1.424 1.72-2.177 3.312-2.897 5.42l-.663 1.921-.705 2.084-.746 2.172a1955.97 1955.97 0 0 0-1.975 5.795c-.542 1.593-1.086 3.186-1.63 4.778a5331.18 5331.18 0 0 0-3.976 11.68c-.731 2.157-1.465 4.313-2.2 6.468-.752 2.202-1.5 4.406-2.244 6.61-.365 1.08-.732 2.159-1.099 3.238-2.754 8.246-5.858 18-2.906 26.603 1.508 2.806 3.227 4.925 6.238 6.138 4.09 1.188 7.296.209 11.002-1.698 9.665-5.9 14.471-17.128 18.586-27.186l.829-1.966.664-1.73.555-1.44c.615-4.579-1.499-9.54-2.872-13.855l-.579-1.84a1729.44 1729.44 0 0 0-1.214-3.844c-.608-1.918-1.212-3.837-1.816-5.756a1199.16 1199.16 0 0 0-7.509-23.023l-2.843-.57ZM.569.7C7.717.662 14.865.632 22.013.613c3.32-.008 6.64-.02 9.96-.04C35.18.554 38.388.543 41.596.54c1.22-.003 2.44-.01 3.66-.018 10.813-.08 20.465.86 28.67 8.71 6.999 8.11 9.114 16.615 8.643 27.062-.64 7.723-4.797 14.384-10.35 19.568-3.181 2.382-6.519 4.283-10.235 5.687.843 2.113 1.976 3.02 3.803 4.336 7.641 5.957 10.216 15.17 13 24.072 2.052 6.528 4.406 13.986 10.244 18.115 1.236.602 2.313.995 3.66 1.244v1.706c-8.262.371-15.951-.522-22.28-6.237-6.157-6.413-8.193-14.89-10.253-23.271-1.818-8.859-1.818-8.859-6.942-15.845-5.27-2.544-10.983-.748-16.253.997-3.885 1.453-6.825 3.284-9.099 6.824-.534 1.605-.649 2.626-.669 4.29l-.022 1.583-.013 1.707-.014 1.761c-.008 1.232-.014 2.463-.018 3.695a690.88 690.88 0 0 1-.06 5.63c-.006 1.198-.01 2.395-.014 3.592l-.03 1.693c.01 3.512.482 5.593 2.546 8.463 1.064.879 1.064.879 2.24 1.315l1.188.518 1.122.442 1.706.711 1.137.426-.569 1.706H.57v-2.275l1.02-.273c3.411-1.007 5.6-2.167 7.573-5.27.68-1.722.652-3.174.657-5.025l.008-1.137c.007-1.257.006-2.513.005-3.77l.012-2.705c.01-2.448.013-4.897.013-7.345.001-1.53.004-3.06.007-4.591.01-5.34.015-10.68.014-16.02 0-4.975.011-9.95.03-14.925.014-4.273.02-8.546.02-12.82 0-2.55.002-5.102.014-7.653.012-2.401.012-4.801.003-7.202 0-.88.002-1.76.009-2.639.141-6.178.141-6.178-2.561-11.552-1.064-.879-1.064-.879-2.24-1.315l-1.188-.518-1.122-.442-1.706-.71L0 2.406.569.7ZM26.727 5.82c-.17 1.15-.17 1.15-.137 2.49l-.005 1.585.013 1.744v1.832c0 2.007.01 4.013.018 6.019l.005 4.164c.004 3.66.015 7.318.028 10.977.012 3.732.017 7.463.023 11.195.012 7.326.03 14.652.055 21.978 1.592-.773 2.893-1.582 4.265-2.701 4.508-3.404 9.579-5.372 14.856-7.25 7.752-2.784 14.123-6.382 18.09-13.933 3.276-7.203 3.65-14.621 1.038-22.155C62.117 14.877 57.828 10.3 51.18 6.956 45.887 4.77 40.782 4.578 35.115 4.575l-2.062-.021-1.963-.004-1.793-.007c-1.53-.005-1.53-.005-2.57 1.276ZM625.491.594l1.584-.02 1.523-.004 1.395-.007c1.22.138 1.22.138 2.926 1.275.507 1.122.507 1.122.927 2.522l.493 1.606.521 1.765.562 1.848a935.44 935.44 0 0 1 1.202 3.984c.969 3.228 1.955 6.45 2.94 9.673l1.021 3.345c3.741 12.27 7.685 24.478 11.668 36.672l.396 1.213a5039.636 5039.636 0 0 0 5.722 17.403c.586 1.773 1.171 3.546 1.753 5.32.687 2.092 1.379 4.183 2.075 6.272.257.773.512 1.546.765 2.32.349 1.068.706 2.134 1.063 3.2l.6 1.813c1.14 2.744 2.587 5.373 5.255 6.815 1.691.466 3.392.824 5.118 1.137v2.275h-35.257v-2.275l1.059-.273c2.883-.825 2.883-.825 5.231-2.605 1.462-4.58.287-8.95-1.188-13.366l-.531-1.655c-.557-1.725-1.125-3.446-1.693-5.167l-1.136-3.524c-1.036-3.2-1.036-3.2-2.084-6.395l-.425-1.292c-.295-.981-.295-.981-.939-1.548l-.711 2.043c-4.257 12.026-10.144 27.488-22.142 33.818-5.202 2.271-10.09 2.986-15.57 1.193-2.908-1.387-4.617-3.646-5.986-6.511-5.622-15.981 5.847-38.394 10.958-53.48l.392-1.159a3598.75 3598.75 0 0 1 3.928-11.536c2.501-7.297 4.976-14.604 7.317-21.954l.59-1.792c1.008-3.225 1.512-6.007 1.332-9.392-.012-1.175-.012-1.175.557-2.881 2.069-1.035 4.511-.674 6.789-.676Zm-5.652 20.01c-2.013 1.552-2.55 3.753-3.314 6.073l-.458 1.35c-.501 1.482-.994 2.965-1.488 4.448l-1.049 3.116c-.741 2.2-1.478 4.402-2.212 6.604-.958 2.87-1.922 5.74-2.888 8.608-.765 2.273-1.527 4.546-2.289 6.82l-1.093 3.255c-7.305 18.531-7.305 18.531-6.34 37.628 1.543 2.671 3.607 4.584 6.551 5.573 3.849.619 7.211-.314 10.6-2.157 2.1-1.53 3.897-3.238 5.686-5.117l1.147-1.178c5.515-6.255 9.111-14.595 12.075-22.315l.516-1.305.452-1.248.394-1.069c.591-3.866-.82-7.693-1.984-11.33l-.492-1.569c-.525-1.673-1.056-3.345-1.587-5.017a9444.483 9444.483 0 0 1-2.729-8.636 472.62 472.62 0 0 1-3.102-10.219l-.685-2.319c-.409-1.395-.81-2.793-1.201-4.193l-.549-1.847-.451-1.582c-.589-1.377-.589-1.377-2.158-1.982l-1.352-.392Z"/></svg>