<svg width="54" height="34" viewBox="0 0 54 34" fill="none" xmlns="http://www.w3.org/2000/svg">
<path fill-rule="evenodd" clip-rule="evenodd" d="M19.061 10.5449C19.061 10.5449 17.2086 10.5449 16.7116 12.307C16.2598 13.9335 14.9947 18.3613 14.9495 18.4969H14.5881C14.5881 18.4969 13.2778 13.9335 12.826 12.307C12.329 10.5449 10.4765 10.5449 10.4765 10.5449H6.27466V23.9186H10.5217V15.9667H10.7024H10.8832L13.323 23.9186H16.2598L18.6996 15.9667H19.061V23.9186H23.2629V10.5449H19.061Z" fill="#E479BD"/>
<path fill-rule="evenodd" clip-rule="evenodd" d="M34.4231 10.5449C34.4231 10.5449 33.2032 10.6353 32.6159 11.9455L29.6339 18.4969H29.2724V10.5449H25.0706V23.9186H29.0465C29.0465 23.9186 30.3567 23.7831 30.8989 22.518L33.8357 15.9667H34.1972V23.9186H38.399V10.5449H34.4231Z" fill="#E479BD"/>
<path fill-rule="evenodd" clip-rule="evenodd" d="M40.2512 16.644V23.9183H44.4531V19.6712H49.0164C51.0044 19.6712 52.6761 18.4061 53.3087 16.644H40.2512Z" fill="#E479BD"/>
<path fill-rule="evenodd" clip-rule="evenodd" d="M49.0166 10.5449H39.6641C40.1159 13.0751 42.0587 15.1534 44.4985 15.786C45.0407 15.9215 45.628 16.0119 46.2606 16.0119H53.4444C53.4896 15.6956 53.5348 15.3793 53.5348 15.0631C53.58 12.5781 51.5016 10.5449 49.0166 10.5449Z" fill="#E479BD"/>
</svg>
