<svg width="24" height="24" viewBox="0 0 24 24" fill="none" xmlns="http://www.w3.org/2000/svg">
<path fill-rule="evenodd" clip-rule="evenodd" d="M17.4364 15.2081C19.3689 15.3929 21.25 15.5727 21.25 12C21.25 6.89137 17.1086 2.75 12 2.75C6.89137 2.75 2.75 6.89137 2.75 12C2.75 17.1086 6.89137 21.25 12 21.25C16.076 21.25 15.3077 19.8749 14.4931 18.417C14.0087 17.55 13.508 16.6537 14 16C14.7867 14.9548 16.1234 15.0826 17.4364 15.2081ZM13.5 7C13.5 7.82843 12.8284 8.5 12 8.5C11.1716 8.5 10.5 7.82843 10.5 7C10.5 6.17157 11.1716 5.5 12 5.5C12.8284 5.5 13.5 6.17157 13.5 7ZM8.75 10.5C8.75 11.3284 8.07843 12 7.25 12C6.42157 12 5.75 11.3284 5.75 10.5C5.75 9.67157 6.42157 9 7.25 9C8.07843 9 8.75 9.67157 8.75 10.5ZM16.75 12C17.5784 12 18.25 11.3284 18.25 10.5C18.25 9.67157 17.5784 9 16.75 9C15.9216 9 15.25 9.67157 15.25 10.5C15.25 11.3284 15.9216 12 16.75 12Z" fill="#E479BD"/>
</svg>
