<svg width="80" height="14" viewBox="0 0 80 14" fill="none" xmlns="http://www.w3.org/2000/svg">
<g clip-path="url(#clip0_545_16271)">
<path d="M64.5245 6.72097L61.4733 3.26636H59.6895V11.265H61.5519V6.16171L64.3376 9.18522H64.6819L67.4196 6.16171V11.265H69.2821V3.26636H67.4982L64.5245 6.72097Z" fill="#1E1E1E"/>
<path d="M78.1565 3.26636L73.5402 8.46517V3.26636H71.6777V11.265H73.384L78.0004 6.06615V11.265H79.8628V3.26636H78.1565Z" fill="#1E1E1E"/>
<path d="M49.6586 6.19315C49.6586 7.46665 50.3426 8.46983 51.3923 8.89044L49.4238 11.265H51.7035L53.4941 9.10483H55.4318V11.265H57.2941V3.26636H52.5526C50.7847 3.26636 49.6586 4.4979 49.6586 6.19316L49.6586 6.19315ZM55.4329 5.02802V7.39323H52.898C52.0523 7.39323 51.5986 6.9132 51.5986 6.20946C51.5986 5.50572 52.0681 5.02567 52.898 5.02567L55.4329 5.02802Z" fill="#1E1E1E"/>
<path d="M41.0029 4.86607C40.8889 7.61695 40.3191 9.39261 39.2032 9.39261H38.9238V11.3128L39.2214 11.3291C41.4587 11.4561 42.6955 9.45669 42.8984 5.08978H45.8414V11.265H47.7004V3.26636H41.0655L41.0029 4.86608L41.0029 4.86607Z" fill="#1E1E1E"/>
<path d="M33.9914 3.1546C31.4725 3.1546 29.6602 4.93026 29.6602 7.26519C29.6602 9.68052 31.632 11.3933 33.9914 11.3933C36.4488 11.3933 38.358 9.58498 38.358 7.26519C38.358 4.94541 36.4488 3.1546 33.9914 3.1546ZM33.9914 9.47311C32.5677 9.47311 31.5978 8.52936 31.5978 7.26519C31.5978 5.96957 32.5689 5.05144 33.9914 5.05144C35.4138 5.05144 36.4169 6.01151 36.4169 7.26519C36.4169 8.51888 35.4002 9.47311 33.9914 9.47311Z" fill="#1E1E1E"/>
<path d="M27.6844 3.28162H21.1112L21.0484 4.88134C20.955 7.18597 20.3646 9.37759 19.2487 9.40904L18.7324 9.42537V13.1538H20.6107V11.2663H27.1361V13.1538H29.0306V9.40904H27.6844V3.28162ZM25.822 9.40904H21.8475C22.52 8.36975 22.8801 6.86557 22.9429 5.10621H25.822V9.40904Z" fill="#1E1E1E"/>
<path d="M14.4486 1.46143H12.6426V11.3076H14.4486V1.46143Z" fill="#1E1E1E"/>
<path d="M10.2337 2.0769H8.42773V11.9231H10.2337V2.0769Z" fill="#1E1E1E"/>
<path d="M6.02085 2.69226H4.21484V12.5384H6.02085V2.69226Z" fill="#1E1E1E"/>
<path d="M1.80601 3.30774H0V13.1539H1.80601V3.30774Z" fill="#1E1E1E"/>
</g>
<defs>
<clipPath id="clip0_545_16271">
<rect width="80" height="12.3077" fill="white" transform="translate(0 0.84613)"/>
</clipPath>
</defs>
</svg>
