<svg width="24" height="24" viewBox="0 0 24 24" fill="none" xmlns="http://www.w3.org/2000/svg">
<path d="M7.75 2.75C9.40685 2.75 10.75 4.09315 10.75 5.75V12.25C10.75 12.8023 11.1977 13.25 11.75 13.25H18.25C19.9069 13.25 21.25 14.5931 21.25 16.25V18.25C21.25 19.9069 19.9069 21.25 18.25 21.25H17.5V18.25C17.5 17.8358 17.1642 17.5 16.75 17.5C16.3358 17.5 16 17.8358 16 18.25V21.25H13.5V18.25C13.5 17.8358 13.1642 17.5 12.75 17.5C12.3358 17.5 12 17.8358 12 18.25V21.25H9.5V18.25C9.5 17.8358 9.16421 17.5 8.75 17.5C8.33579 17.5 8 17.8358 8 18.25V21.25H5.75C4.09315 21.25 2.75 19.9069 2.75 18.25V16H5.75C6.16421 16 6.5 15.6642 6.5 15.25C6.5 14.8358 6.16421 14.5 5.75 14.5H2.75V12H5.75C6.16421 12 6.5 11.6642 6.5 11.25C6.5 10.8358 6.16421 10.5 5.75 10.5H2.75V8H5.75C6.16421 8 6.5 7.66421 6.5 7.25C6.5 6.83579 6.16421 6.5 5.75 6.5H2.75V5.75C2.75 4.09315 4.09315 2.75 5.75 2.75H7.75Z" fill="#E479BD"/>
</svg>
