<svg width="24" height="24" viewBox="0 0 24 24" fill="none" xmlns="http://www.w3.org/2000/svg">
<path d="M12 7.5C13.3792 7.5 14.4974 6.38071 14.4974 5H15.3733C15.8213 5 16.2562 5.15069 16.6083 5.42789L20.6185 8.58473C21.0508 8.925 21.127 9.55098 20.7891 9.98526L19.5338 11.5986C19.191 12.0392 18.5543 12.1134 18.1196 11.7634L16.6745 10.6V16C16.6745 17.6569 15.3328 19 13.6776 19H10.4236C8.76842 19 7.42666 17.6569 7.42666 16V10.6L5.87573 11.792C5.44044 12.1265 4.81706 12.0469 4.47961 11.6137L3.21123 9.98535C2.87296 9.55109 2.94908 8.92479 3.3815 8.58439L7.39124 5.42788C7.74336 5.15069 8.17832 5 8.62627 5H9.50253C9.50253 6.38071 10.6207 7.5 12 7.5Z" fill="#E479BD"/>
</svg>
