<svg width="40" height="34" viewBox="0 0 40 34" fill="none" xmlns="http://www.w3.org/2000/svg">
<path d="M10.4088 13.3809L13.2237 16.5812C14.2666 17.7669 14.7881 18.3598 15.3339 18.2154C15.8797 18.0711 16.067 17.2909 16.4412 15.7304L18.5177 7.07403C19.0943 4.67061 19.3825 3.4689 18.7417 2.87617C18.101 2.28345 16.9903 2.72441 14.7689 3.60636L4.46307 7.69807C2.68643 8.40344 1.7981 8.75616 1.74171 9.36223C1.73593 9.42424 1.73584 9.48668 1.74142 9.54868C1.79596 10.155 2.6832 10.5107 4.45768 11.222C5.26169 11.5442 5.6637 11.7054 5.95193 12.014C5.98434 12.0487 6.0155 12.0846 6.04535 12.1217C6.31092 12.4517 6.42425 12.8848 6.6509 13.7509L7.07508 15.3719C7.29564 16.2147 7.40592 16.6361 7.69474 16.6936C7.98357 16.751 8.23505 16.4016 8.738 15.7027L10.4088 13.3809ZM10.4088 13.3809L10.1329 13.0932C9.81875 12.7658 9.66174 12.6022 9.66174 12.3988C9.66174 12.1955 9.81875 12.0318 10.1329 11.7044L13.2357 8.47062" fill="#E479BD"/>
<path d="M10.4088 13.3809L13.2237 16.5812C14.2666 17.7669 14.7881 18.3598 15.3339 18.2154C15.8797 18.0711 16.067 17.2909 16.4412 15.7304L18.5177 7.07403C19.0943 4.67061 19.3825 3.4689 18.7417 2.87617C18.101 2.28345 16.9903 2.72441 14.7689 3.60636L4.46307 7.69807C2.68643 8.40344 1.7981 8.75616 1.74171 9.36223C1.73593 9.42424 1.73584 9.48668 1.74142 9.54868C1.79596 10.155 2.6832 10.5107 4.45768 11.222C5.26169 11.5442 5.6637 11.7054 5.95193 12.014C5.98434 12.0487 6.0155 12.0846 6.04535 12.1217C6.31092 12.4517 6.42425 12.8848 6.6509 13.7509L7.07508 15.3719C7.29564 16.2147 7.40592 16.6361 7.69474 16.6936C7.98357 16.751 8.23505 16.4016 8.738 15.7027L10.4088 13.3809ZM10.4088 13.3809L10.1329 13.0932C9.81875 12.7658 9.66174 12.6022 9.66174 12.3988C9.66174 12.1955 9.81875 12.0318 10.1329 11.7044L13.2357 8.47062" stroke="#E479BD" stroke-width="0.868421" stroke-linecap="round" stroke-linejoin="round"/>
<g clip-path="url(#clip0_365_2482)">
<mask id="path-3-inside-1_365_2482" fill="white">
<path fill-rule="evenodd" clip-rule="evenodd" d="M38.7309 18.3732C38.8758 17.914 38.7309 17.5802 38.0897 17.5802H35.9579C35.4201 17.5802 35.1718 17.8725 35.0269 18.1852C35.0269 18.1852 33.9302 20.8556 32.3988 22.5868C31.9022 23.0875 31.6747 23.2544 31.4056 23.2544C31.2607 23.2544 31.0742 23.0875 31.0742 22.6288V18.3517C31.0742 17.8094 30.909 17.5591 30.4534 17.5591H27.1008C26.7694 17.5591 26.5626 17.8094 26.5626 18.0598C26.5626 18.5812 27.3283 18.7066 27.411 20.1668V23.3395C27.411 24.0279 27.2889 24.1537 27.0177 24.1537C26.2936 24.1537 24.5346 21.4625 23.4795 18.396C23.2743 17.7887 23.0659 17.5591 22.5277 17.5591H20.3755C19.7548 17.5591 19.6514 17.851 19.6514 18.164C19.6514 18.7274 20.3755 21.5643 23.0244 25.3191C24.7833 27.8837 27.2872 29.262 29.5428 29.262C30.909 29.262 31.0742 28.949 31.0742 28.4275V26.4874C31.0742 25.8617 31.1984 25.7575 31.6331 25.7575C31.9433 25.7575 32.5022 25.924 33.7646 27.155C35.2129 28.6152 35.4612 29.2828 36.2685 29.2828H38.3999C39.0207 29.2828 39.3105 28.9697 39.1448 28.3648C38.9588 27.7599 38.255 26.8839 37.3444 25.841C36.8477 25.2572 36.1028 24.6104 35.8752 24.2974C35.565 23.8801 35.6477 23.7132 35.8752 23.3379C35.8545 23.3379 38.4622 19.6246 38.7309 18.3716"/>
</mask>
<path fill-rule="evenodd" clip-rule="evenodd" d="M38.7309 18.3732C38.8758 17.914 38.7309 17.5802 38.0897 17.5802H35.9579C35.4201 17.5802 35.1718 17.8725 35.0269 18.1852C35.0269 18.1852 33.9302 20.8556 32.3988 22.5868C31.9022 23.0875 31.6747 23.2544 31.4056 23.2544C31.2607 23.2544 31.0742 23.0875 31.0742 22.6288V18.3517C31.0742 17.8094 30.909 17.5591 30.4534 17.5591H27.1008C26.7694 17.5591 26.5626 17.8094 26.5626 18.0598C26.5626 18.5812 27.3283 18.7066 27.411 20.1668V23.3395C27.411 24.0279 27.2889 24.1537 27.0177 24.1537C26.2936 24.1537 24.5346 21.4625 23.4795 18.396C23.2743 17.7887 23.0659 17.5591 22.5277 17.5591H20.3755C19.7548 17.5591 19.6514 17.851 19.6514 18.164C19.6514 18.7274 20.3755 21.5643 23.0244 25.3191C24.7833 27.8837 27.2872 29.262 29.5428 29.262C30.909 29.262 31.0742 28.949 31.0742 28.4275V26.4874C31.0742 25.8617 31.1984 25.7575 31.6331 25.7575C31.9433 25.7575 32.5022 25.924 33.7646 27.155C35.2129 28.6152 35.4612 29.2828 36.2685 29.2828H38.3999C39.0207 29.2828 39.3105 28.9697 39.1448 28.3648C38.9588 27.7599 38.255 26.8839 37.3444 25.841C36.8477 25.2572 36.1028 24.6104 35.8752 24.2974C35.565 23.8801 35.6477 23.7132 35.8752 23.3379C35.8545 23.3379 38.4622 19.6246 38.7309 18.3716" fill="#E479BD"/>
<path d="M35.0269 18.1852L34.239 17.8199L34.2309 17.8374L34.2236 17.8553L35.0269 18.1852ZM32.3988 22.5868L33.0154 23.1984L33.0329 23.1808L33.0493 23.1622L32.3988 22.5868ZM27.411 20.1668H28.2794V20.1422L28.278 20.1177L27.411 20.1668ZM23.4795 18.396L22.6567 18.674L22.6583 18.6786L23.4795 18.396ZM23.0244 25.3191L23.7406 24.8279L23.734 24.8185L23.0244 25.3191ZM33.7646 27.155L34.3811 26.5434L34.376 26.5383L34.3709 26.5333L33.7646 27.155ZM39.1448 28.3648L39.9824 28.1354L39.9789 28.1224L39.9749 28.1095L39.1448 28.3648ZM37.3444 25.841L36.6829 26.4037L36.6902 26.4121L37.3444 25.841ZM35.8752 24.2974L36.5777 23.7867L36.5722 23.7792L35.8752 24.2974ZM35.8752 23.3379L36.6178 23.7881L37.4173 22.4695H35.8752V23.3379ZM39.559 18.6346C39.6613 18.3104 39.7463 17.7793 39.4173 17.3077C39.0783 16.8218 38.5222 16.7118 38.0897 16.7118V18.4487C38.1806 18.4487 38.1985 18.4613 38.1729 18.4516C38.139 18.4387 38.0596 18.3971 37.9928 18.3014C37.9276 18.2079 37.9153 18.1213 37.914 18.0848C37.913 18.0545 37.919 18.0601 37.9027 18.1119L39.559 18.6346ZM38.0897 16.7118H35.9579V18.4487H38.0897V16.7118ZM35.9579 16.7118C35.5194 16.7118 35.1333 16.8354 34.8193 17.0743C34.5189 17.3029 34.3452 17.5909 34.239 17.8199L35.8148 18.5504C35.8535 18.4668 35.8765 18.4524 35.8709 18.4566C35.8669 18.4596 35.8646 18.4598 35.87 18.4581C35.8765 18.456 35.9028 18.4487 35.9579 18.4487V16.7118ZM35.0269 18.1852C34.2236 17.8553 34.2236 17.8552 34.2237 17.8551C34.2237 17.8551 34.2237 17.855 34.2237 17.855C34.2237 17.8549 34.2237 17.8549 34.2237 17.8549C34.2237 17.855 34.2236 17.8552 34.2235 17.8555C34.2232 17.8563 34.2226 17.8576 34.2218 17.8596C34.2201 17.8636 34.2174 17.87 34.2137 17.8788C34.2063 17.8964 34.1949 17.9235 34.1795 17.9591C34.1487 18.0304 34.1024 18.1359 34.0417 18.2686C33.9203 18.5343 33.7426 18.9072 33.5188 19.3321C33.0657 20.1923 32.4466 21.2221 31.7484 22.0115L33.0493 23.1622C33.8825 22.2203 34.5774 21.0493 35.0555 20.1414C35.2973 19.6823 35.4894 19.2794 35.6215 18.9903C35.6876 18.8456 35.7389 18.7289 35.7741 18.6474C35.7917 18.6067 35.8053 18.5747 35.8147 18.5523C35.8194 18.5411 35.823 18.5324 35.8256 18.5261C35.8269 18.523 35.828 18.5205 35.8287 18.5187C35.8291 18.5177 35.8294 18.517 35.8297 18.5164C35.8298 18.5161 35.8299 18.5158 35.83 18.5156C35.83 18.5155 35.8301 18.5154 35.8301 18.5153C35.8302 18.5152 35.8302 18.5151 35.0269 18.1852ZM31.7823 21.9753C31.5336 22.226 31.4039 22.3388 31.3268 22.3915C31.2956 22.4128 31.2945 22.409 31.3171 22.401C31.3447 22.3914 31.3773 22.386 31.4056 22.386V24.1229C31.7576 24.1229 32.0497 24.0012 32.3069 23.8253C32.535 23.6694 32.7675 23.4484 33.0154 23.1984L31.7823 21.9753ZM31.4056 22.386C31.6847 22.386 31.8517 22.5455 31.9126 22.6387C31.9692 22.7253 31.9426 22.7519 31.9426 22.6288H30.2058C30.2058 22.9644 30.2725 23.3038 30.4585 23.5886C30.6489 23.8799 30.9815 24.1229 31.4056 24.1229V22.386ZM31.9426 22.6288V18.3517H30.2058V22.6288H31.9426ZM31.9426 18.3517C31.9426 18.032 31.9023 17.5931 31.6282 17.2293C31.3082 16.8048 30.8412 16.6907 30.4534 16.6907V18.4275C30.492 18.4275 30.4708 18.4334 30.419 18.4126C30.3917 18.4016 30.359 18.3844 30.3254 18.359C30.2917 18.3333 30.2634 18.3042 30.2411 18.2747C30.1974 18.2168 30.191 18.1763 30.1944 18.1911C30.1981 18.2074 30.2058 18.2558 30.2058 18.3517H31.9426ZM30.4534 16.6907H27.1008V18.4275H30.4534V16.6907ZM27.1008 16.6907C26.2831 16.6907 25.6942 17.3365 25.6942 18.0598H27.4311C27.4311 18.1709 27.3871 18.2635 27.324 18.3271C27.2529 18.3989 27.1649 18.4275 27.1008 18.4275V16.6907ZM25.6942 18.0598C25.6942 18.4308 25.8401 18.7069 25.9645 18.8906C26.022 18.9755 26.0848 19.0546 26.1285 19.1098C26.1778 19.172 26.215 19.2187 26.2521 19.2701C26.3663 19.428 26.5129 19.6672 26.5439 20.2159L28.278 20.1177C28.2264 19.2062 27.9489 18.6526 27.6596 18.2525C27.5958 18.1643 27.5334 18.0862 27.49 18.0314C27.4411 17.9697 27.4182 17.9397 27.4026 17.9167C27.3809 17.8846 27.4311 17.9495 27.4311 18.0598H25.6942ZM26.5426 20.1668V23.3395H28.2794V20.1668H26.5426ZM26.5426 23.3395C26.5426 23.4907 26.5356 23.5818 26.5282 23.633C26.52 23.6896 26.5169 23.6558 26.5546 23.5872C26.5758 23.5485 26.6099 23.4989 26.6616 23.4494C26.7144 23.3991 26.7738 23.3602 26.834 23.3328C26.9463 23.2817 27.0297 23.2852 27.0177 23.2852V25.0221C27.1413 25.0221 27.3417 25.0099 27.5531 24.9137C27.7888 24.8065 27.9636 24.6299 28.0775 24.4222C28.2607 24.088 28.2794 23.6748 28.2794 23.3395H26.5426ZM27.0177 23.2852C27.1781 23.2852 27.2443 23.3504 27.1825 23.3093C27.1371 23.279 27.0553 23.2121 26.9394 23.0893C26.7095 22.8456 26.4229 22.4649 26.1085 21.9635C25.483 20.9658 24.8076 19.5867 24.3006 18.1135L22.6583 18.6786C23.2065 20.2718 23.9382 21.7715 24.637 22.8861C24.9847 23.4407 25.3396 23.9245 25.6761 24.2812C25.8434 24.4586 26.0261 24.6259 26.2196 24.7548C26.3968 24.8728 26.6764 25.0221 27.0177 25.0221V23.2852ZM24.3022 18.1181C24.1925 17.7932 24.0329 17.4016 23.7162 17.1105C23.3554 16.7788 22.925 16.6907 22.5277 16.6907V18.4275C22.6037 18.4275 22.6242 18.436 22.6136 18.4327C22.595 18.4268 22.5653 18.4117 22.5408 18.3891C22.5216 18.3715 22.5282 18.3698 22.5529 18.4164C22.5789 18.4652 22.613 18.5444 22.6567 18.6739L24.3022 18.1181ZM22.5277 16.6907H20.3755V18.4275H22.5277V16.6907ZM20.3755 16.6907C19.9506 16.6907 19.4806 16.7888 19.1425 17.1552C18.8131 17.5122 18.7829 17.9407 18.7829 18.164H20.5198C20.5198 18.1285 20.5234 18.1353 20.5153 18.1651C20.5055 18.2012 20.4793 18.2676 20.4189 18.3331C20.3575 18.3995 20.2967 18.4263 20.2745 18.4336C20.2591 18.4388 20.2841 18.4275 20.3755 18.4275V16.6907ZM18.7829 18.164C18.7829 18.4258 18.8547 18.8013 18.9676 19.2185C19.0874 19.6609 19.2728 20.22 19.5411 20.8742C20.078 22.1836 20.9527 23.8889 22.3148 25.8197L23.734 24.8185C22.4472 22.9944 21.6354 21.4039 21.1481 20.2153C20.9042 19.6205 20.743 19.1301 20.6442 18.7648C20.5947 18.582 20.5621 18.435 20.5424 18.3254C20.521 18.2068 20.5198 18.1591 20.5198 18.164H18.7829ZM22.3082 25.8103C24.1919 28.5567 26.9409 30.1304 29.5428 30.1304V28.3936C27.6336 28.3936 25.3747 27.2106 23.7405 24.8279L22.3082 25.8103ZM29.5428 30.1304C30.2282 30.1304 30.8559 30.065 31.3073 29.7596C31.8926 29.3638 31.9426 28.7636 31.9426 28.4275H30.2058C30.2058 28.525 30.1958 28.5233 30.2097 28.4846C30.2332 28.419 30.283 28.3556 30.3343 28.321C30.3647 28.3004 30.3452 28.3249 30.2041 28.3504C30.0665 28.3752 29.8565 28.3936 29.5428 28.3936V30.1304ZM31.9426 28.4275V26.4874H30.2058V28.4275H31.9426ZM31.9426 26.4874C31.9426 26.3511 31.9501 26.2897 31.9538 26.2703C31.9574 26.2513 31.946 26.3361 31.8625 26.4381C31.8193 26.4908 31.7675 26.5349 31.7121 26.5681C31.6589 26.6 31.6136 26.6153 31.5876 26.6223C31.563 26.6289 31.5519 26.6291 31.5625 26.6281C31.5729 26.6272 31.5946 26.6259 31.6331 26.6259V24.8891C31.4284 24.8891 30.8867 24.8883 30.5188 25.3376C30.3499 25.5438 30.2803 25.772 30.247 25.9485C30.2138 26.1246 30.2058 26.3109 30.2058 26.4874H31.9426ZM31.6331 26.6259C31.5723 26.6259 31.9115 26.5609 33.1583 27.7767L34.3709 26.5333C33.093 25.2871 32.3144 24.8891 31.6331 24.8891V26.6259ZM33.148 27.7666C33.4951 28.1165 33.771 28.4196 34.0059 28.6823C34.2324 28.9356 34.4468 29.1814 34.6381 29.3757C34.8325 29.5731 35.0567 29.7746 35.3303 29.9211C35.6237 30.0783 35.9327 30.1512 36.2685 30.1512V28.4143C36.2006 28.4143 36.1759 28.4038 36.1504 28.3901C36.1052 28.3659 36.0255 28.3092 35.8758 28.1572C35.723 28.0021 35.5533 27.8072 35.3007 27.5246C35.0565 27.2515 34.7582 26.9236 34.3811 26.5434L33.148 27.7666ZM36.2685 30.1512H38.3999V28.4143H36.2685V30.1512ZM38.3999 30.1512C38.8223 30.1512 39.3631 30.0483 39.7321 29.6094C40.1194 29.1486 40.1038 28.5785 39.9824 28.1354L38.3073 28.5942C38.3278 28.6692 38.3203 28.6864 38.3233 28.6611C38.325 28.6469 38.3298 28.6213 38.3432 28.5891C38.3567 28.5564 38.3765 28.5228 38.4025 28.4918C38.4567 28.4274 38.5097 28.4064 38.517 28.4039C38.5199 28.4029 38.4865 28.4143 38.3999 28.4143V30.1512ZM39.9749 28.1095C39.8364 27.6592 39.5385 27.1906 39.2155 26.7521C38.88 26.2967 38.4567 25.7945 37.9985 25.2698L36.6902 26.4121C37.1427 26.9304 37.5265 27.3877 37.8171 27.7822C38.1202 28.1937 38.2672 28.4655 38.3148 28.6201L39.9749 28.1095ZM38.0058 25.2782C37.7289 24.9528 37.3907 24.6185 37.1197 24.3503C36.8127 24.0467 36.6386 23.8705 36.5777 23.7867L35.1728 24.808C35.3395 25.0372 35.6515 25.341 35.8981 25.585C36.1806 25.8644 36.4632 26.1454 36.6829 26.4037L38.0058 25.2782ZM36.5722 23.7792C36.5467 23.745 36.5314 23.7214 36.5226 23.7068C36.514 23.6922 36.5142 23.6904 36.5178 23.6996C36.5218 23.7095 36.5295 23.7311 36.5348 23.7625C36.5404 23.7949 36.5423 23.83 36.5397 23.8654C36.5345 23.9358 36.5142 23.9726 36.5229 23.9541C36.5272 23.9448 36.5358 23.9277 36.5525 23.8983C36.5693 23.8687 36.59 23.8341 36.6178 23.7881L35.1326 22.8877C35.0463 23.03 34.836 23.3503 34.8075 23.7384C34.7741 24.1936 34.9824 24.552 35.1783 24.8155L36.5722 23.7792ZM35.8752 22.4695C36.0624 22.4899 36.4271 22.6674 36.5779 22.8277C36.6624 22.9712 36.7365 23.2277 36.7435 23.3287C36.7452 23.4886 36.7001 23.6092 36.6956 23.6219C36.6731 23.6869 36.6473 23.7346 36.645 23.739C36.637 23.7541 36.6305 23.7654 36.6279 23.7699C36.6246 23.7755 36.6222 23.7795 36.6211 23.7813C36.6182 23.786 36.6189 23.7846 36.6273 23.7719C36.6422 23.7491 36.6666 23.7125 36.7019 23.6601C36.7703 23.5581 36.8733 23.4055 36.9969 23.2207C37.2448 22.8497 37.5821 22.3391 37.9295 21.7872C38.2757 21.2371 38.6379 20.6367 38.9333 20.0874C39.2133 19.5666 39.484 19.0013 39.58 18.5537L37.8817 18.1895C37.8434 18.3684 37.6873 18.7371 37.4035 19.2649C37.135 19.7643 36.7962 20.3271 36.4596 20.862C36.124 21.395 35.7965 21.8911 35.5529 22.2555C35.4307 22.4384 35.3313 22.5856 35.2601 22.6917C35.2254 22.7432 35.1957 22.7876 35.1746 22.8199C35.1649 22.8346 35.1522 22.8543 35.1406 22.8731C35.1368 22.8793 35.1225 22.9025 35.1074 22.9313C35.1041 22.9375 35.0777 22.9867 35.0548 23.0525C35.0503 23.0656 35.0051 23.1866 35.0067 23.3468C35.0137 23.4478 35.0879 23.7044 35.1724 23.848C35.3232 24.0083 35.688 24.1859 35.8752 24.2063V22.4695Z" fill="#E479BD" mask="url(#path-3-inside-1_365_2482)"/>
</g>
<defs>
<clipPath id="clip0_365_2482">
<rect width="20.8421" height="20.8421" fill="white" transform="translate(19 13)"/>
</clipPath>
</defs>
</svg>
